<?xml version="1.0" encoding="utf-8"?>
<!-- Generator: Adobe Illustrator 18.1.1, SVG Export Plug-In . SVG Version: 6.00 Build 0)  -->
<svg version="1.1" id="Layer_1" xmlns="http://www.w3.org/2000/svg" xmlns:xlink="http://www.w3.org/1999/xlink" x="0px" y="0px"
	 viewBox="0 0 550.5 195.324" enable-background="new 0 0 550.5 195.324" xml:space="preserve">
<g id="DontPassLine">
	<g id="DontPassLineRect">
		
			<rect id="HDontPassLineRect" x="330.5" y="163.74" fill="none" stroke="#000000" stroke-miterlimit="10" width="167" height="16.989"/>
		
			<rect id="VDPassLineRect" x="513.926" y="15.053" fill="none" stroke="#000000" stroke-miterlimit="10" width="20.5" height="130.687"/>
	</g>
	<rect x="357.426" y="169.019" fill="none" width="126" height="11.52"/>
	<text id="HDPassLineText" transform="matrix(1 0 0 1 379.83 177.5376)" font-family="'MyriadPro-Bold'" font-size="12">Don’t Pass Line</text>
	<rect x="521.24" y="17.782" fill="none" width="11.52" height="126"/>
	<text id="VDPassLineText" transform="matrix(0 -1 1 0 529.7589 121.3769)" font-family="'MyriadPro-Bold'" font-size="12">Don’t Pass Line</text>
</g>
<g id="Come">
	<rect id="ComeRect" x="330.426" y="55.019" fill="none" stroke="#000000" stroke-miterlimit="10" width="182.708" height="51.03"/>
	<rect x="388" y="72.142" fill="none" width="68" height="17.28"/>
	<text id="ComeText" transform="matrix(1 0 0 1 398.9594 84.9219)" font-family="'MyriadPro-Bold'" font-size="18">Come</text>
</g>
<g id="PassLine">
	<path id="PassLineRect" fill="none" stroke="#000000" stroke-miterlimit="10" d="M548.998,194.163H330.5V180.73h200.482
		c1.493-0.356,3.518-0.383,3.518-2.268l0.466-163.408H550v178.214C550,193.762,549.552,194.163,548.998,194.163z"/>
	<rect x="356.249" y="183.805" fill="none" width="126" height="11.52"/>
	<text id="HPassLineText" transform="matrix(1 0 0 1 394.7809 192.3237)" font-family="'MyriadPro-Bold'" font-size="12">Pass Line</text>
	<rect x="538.063" y="17.782" fill="none" width="11.52" height="126"/>
	<text id="VPassLineText" transform="matrix(0 -1 1 0 546.5826 105.25)" font-family="'MyriadPro-Bold'" font-size="12">Pass Line</text>
</g>
<g id="DCome">
	<rect id="DComeRect" x="480.426" y="15.019" fill="none" stroke="#000000" stroke-miterlimit="10" width="32.708" height="40"/>
	<rect x="487" y="25.019" fill="none" width="18" height="19.44"/>
	<text id="DComeText" transform="matrix(0.72 0 0 1 487.9447 31.4092)"><tspan x="0" y="0" font-family="'MyriadPro-Bold'" font-size="9">Don’t </tspan><tspan x="-0.332" y="10.8" font-family="'MyriadPro-Bold'" font-size="9">Come</tspan></text>
</g>
<g id="Field">
	<g>
		<g id="DoubleTwo_3_">
			<path d="M367.242,129.756c0.209-0.255,0.479-0.538,0.804-0.803c0.591-0.482,1.115-0.666,1.517-0.653
				c0.408,0.014,0.725,0.204,0.928,0.589c0.205,0.389,0.218,0.786,0.092,1.149c-0.127,0.366-0.442,0.73-0.904,1.119
				c-0.219,0.184-0.404,0.341-0.564,0.474C368.366,130.881,367.992,130.506,367.242,129.756z M369.231,131.151
				c0.089-0.06,0.206-0.158,0.332-0.261c0.682-0.562,0.883-1.132,0.518-1.757c-0.319-0.546-0.993-0.67-1.841,0.019
				c-0.207,0.168-0.35,0.317-0.438,0.424C368.373,130.206,368.659,130.521,369.231,131.151z"/>
			<path d="M373.25,128.363c0.139,0.702-0.331,1.114-0.818,1.276c-0.545,0.181-1.112,0.033-1.374-0.519
				c-0.278-0.586,0.085-1.188,0.777-1.414C372.554,127.471,373.135,127.782,373.25,128.363z M371.455,128.929
				c0.164,0.391,0.543,0.575,0.912,0.454c0.361-0.119,0.56-0.49,0.456-0.913c-0.079-0.318-0.391-0.682-0.915-0.51
				C371.383,128.132,371.313,128.59,371.455,128.929z"/>
			<path d="M375.724,128.663c-0.014,0.199-0.022,0.374-0.021,0.527c-0.136-0.01-0.204-0.054-0.34-0.058
				c-0.005-0.126-0.007-0.356-0.013-0.356c-0.004,0-0.005,0-0.009,0c-0.109,0-0.332,0.387-0.705,0.407
				c-0.329,0.017-0.745-0.077-0.839-0.75c-0.063-0.448-0.094-0.662-0.157-1.11c0.187-0.026,0.281-0.032,0.469-0.05
				c0.04,0.427,0.06,0.642,0.1,1.069c0.034,0.366,0.182,0.596,0.542,0.582c0.264-0.01,0.45-0.169,0.528-0.323
				c0.024-0.052,0.041-0.115,0.042-0.179c0.013-0.474,0.019-0.711,0.031-1.186c0.189,0.005,0.283,0.01,0.471,0.023
				C375.785,127.821,375.764,128.102,375.724,128.663z"/>
			<path d="M376.303,129.257c0.029-0.129,0.066-0.322,0.092-0.492c0.138-0.925,0.207-1.388,0.344-2.313
				c0.201,0.03,0.301,0.047,0.501,0.086c-0.093,0.477-0.14,0.716-0.233,1.193c0.004,0.001,0.006,0.001,0.01,0.002
				c0.201-0.181,0.53-0.257,0.938-0.14c0.626,0.179,0.9,0.736,0.677,1.277c-0.262,0.637-0.836,0.778-1.292,0.651
				c-0.294-0.082-0.506-0.237-0.619-0.519c-0.005-0.001-0.008-0.001-0.013-0.002c-0.031,0.125-0.046,0.187-0.076,0.312
				C376.501,129.287,376.435,129.276,376.303,129.257z M376.845,128.562c-0.008,0.043-0.008,0.088-0.006,0.129
				c0.032,0.255,0.221,0.463,0.501,0.538c0.401,0.108,0.736-0.085,0.884-0.503c0.13-0.365-0.008-0.776-0.487-0.905
				c-0.306-0.083-0.631,0.018-0.772,0.263c-0.017,0.037-0.041,0.082-0.052,0.137C376.885,128.358,376.872,128.426,376.845,128.562z"
				/>
			<path d="M379.934,127.425c0.189,0.09,0.283,0.138,0.468,0.237c-0.536,1.001-0.805,1.502-1.341,2.503
				c-0.139-0.074-0.209-0.11-0.35-0.177C379.2,128.962,379.444,128.45,379.934,127.425z"/>
			<path d="M380.328,129.879c-0.258,0.399-0.075,0.759,0.247,1.024c0.231,0.19,0.392,0.281,0.548,0.352
				c-0.049,0.093-0.073,0.139-0.123,0.231c-0.144-0.062-0.366-0.186-0.64-0.408c-0.53-0.431-0.674-0.958-0.367-1.455
				c0.306-0.497,0.965-0.654,1.589-0.152c0.701,0.562,0.462,1.16,0.211,1.411c-0.051,0.051-0.099,0.082-0.128,0.104
				C381.164,130.485,380.894,130.264,380.328,129.879z M381.528,130.507c0.154-0.162,0.295-0.523-0.134-0.864
				c-0.385-0.307-0.752-0.15-0.919,0.031C380.914,129.973,381.126,130.14,381.528,130.507z"/>
		</g>
	</g>
	<polygon id="FieldRect" fill="none" stroke="#000000" stroke-miterlimit="10" points="497.919,162.99 330.5,162.99 330.5,106.49 
		513,106.49 513,145.74 	"/>
	<ellipse id="CircleTwo" fill="none" stroke="#000000" stroke-miterlimit="10" cx="375" cy="136.782" rx="7.25" ry="7.445"/>
	
		<ellipse id="CircleTwelve" fill="none" stroke="#000000" stroke-width="0.8878" stroke-miterlimit="10" cx="469" cy="135.782" rx="8.25" ry="9.287"/>
	<rect x="401.5" y="134.698" fill="none" width="41" height="16.32"/>
	<text id="FieldText" transform="matrix(1 0 0 1 403.2997 146.7681)" font-family="'MyriadPro-Bold'" font-size="17">Field</text>
	<g id="FieldNums">
		<g>
			<path d="M375.666,142.221c-0.255-0.265-0.51-0.531-0.764-0.796c0.084-0.505,0.173-1.01,0.269-1.516
				c0.503-2.553,0.764-3.901,0.193-4.619c-0.408-0.486-1.112-0.555-1.986,0.226c-0.652,0.584-0.987,1.357-1.157,1.95
				c-0.459-0.165-0.921-0.327-1.384-0.485c0.253-0.863,0.894-1.966,1.943-2.893c1.76-1.549,3.401-1.513,4.268-0.402
				c0.807,1.03,0.532,2.585,0.147,4.252c-0.092,0.344-0.18,0.688-0.266,1.031c0.006,0.006,0.011,0.012,0.016,0.018
				c0.889-0.789,1.792-1.551,2.709-2.286c0.31,0.392,0.619,0.785,0.929,1.177C378.894,139.232,377.253,140.679,375.666,142.221z"/>
			<path d="M385.584,132.094c0.414-0.065,1.314-0.264,2.061-0.707c0.949-0.564,1.217-1.23,0.933-1.747
				c-0.371-0.673-1.342-0.526-2.173-0.026c-0.256,0.154-0.512,0.309-0.767,0.466c-0.226-0.373-0.452-0.746-0.678-1.119
				c0.247-0.152,0.495-0.303,0.743-0.451c0.635-0.398,1.35-1.069,1.032-1.645c-0.226-0.408-0.815-0.48-1.644,0.012
				c-0.688,0.407-1.262,1.088-1.503,1.47c-0.363-0.291-0.728-0.581-1.095-0.868c0.341-0.576,1.209-1.462,2.322-2.111
				c1.848-1.075,3.295-0.823,3.778,0.125c0.379,0.737,0.168,1.574-0.685,2.433c0.004,0.007,0.008,0.014,0.012,0.021
				c1.073-0.408,2.202-0.194,2.664,0.713c0.623,1.237-0.144,2.746-2.082,3.892c-0.991,0.587-1.954,0.889-2.553,0.934
				C385.826,133.023,385.703,132.559,385.584,132.094z"/>
			<path d="M401.221,126.559c-0.197-0.588-0.394-1.176-0.591-1.764c-1.252,0.424-2.496,0.885-3.729,1.383
				c-0.146-0.368-0.293-0.735-0.439-1.103c0.486-1.904,1.053-3.81,1.703-5.712c0.876-0.304,1.756-0.592,2.639-0.863
				c0.437,1.46,0.875,2.919,1.316,4.378c0.348-0.107,0.697-0.212,1.047-0.313c0.125,0.438,0.251,0.876,0.376,1.314
				c-0.343,0.1-0.685,0.202-1.026,0.307c0.18,0.593,0.36,1.187,0.54,1.78C402.443,126.155,401.831,126.353,401.221,126.559z
				 M400.198,123.499c-0.182-0.546-0.364-1.093-0.545-1.639c-0.147-0.445-0.271-0.909-0.387-1.402
				c-0.019,0.006-0.037,0.012-0.056,0.019c-0.133,0.578-0.221,1.089-0.36,1.66c-0.208,0.675-0.406,1.351-0.594,2.027
				c0.002,0.007,0.005,0.015,0.007,0.022C398.906,123.947,399.551,123.718,400.198,123.499z"/>
			<path d="M410.511,122.787c0.259-0.022,0.483-0.063,0.88-0.156c0.608-0.14,1.21-0.39,1.643-0.743
				c0.515-0.426,0.833-0.975,0.925-1.579c-0.014-0.002-0.028-0.004-0.042-0.006c-0.356,0.407-0.901,0.685-1.702,0.809
				c-1.49,0.228-2.923-0.425-3.215-1.909c-0.297-1.492,0.949-3.06,3.056-3.368c2.462-0.35,3.761,1.096,3.916,2.906
				c0.146,1.613-0.335,2.849-1.188,3.737c-0.749,0.767-1.809,1.284-3.117,1.555c-0.337,0.08-0.678,0.13-0.901,0.159
				C410.68,123.724,410.596,123.256,410.511,122.787z M411.118,118.713c0.107,0.664,0.615,1.16,1.473,1.035
				c0.568-0.084,0.938-0.374,1.102-0.673c0.056-0.117,0.084-0.242,0.056-0.468c-0.099-0.821-0.571-1.588-1.567-1.444
				C411.432,117.273,410.974,117.911,411.118,118.713z"/>
			<path d="M425.525,116.833c-0.009,0-0.019,0-0.028-0.001c-0.604,0.216-1.202,0.439-1.795,0.67
				c-0.112-0.457-0.225-0.913-0.341-1.369c0.836-0.316,1.682-0.619,2.538-0.907c0.617,0.023,1.234,0.054,1.85,0.092
				c-0.181,2.593-0.356,5.186-0.525,7.779c-0.645-0.04-1.29-0.071-1.936-0.092C425.363,120.948,425.442,118.89,425.525,116.833z"/>
			<path d="M437.077,120.418c-0.5,2.363-1.875,3.752-4.015,3.426c-2.168-0.317-2.956-2.188-2.745-4.392
				c0.225-2.237,1.592-3.926,4.059-3.562C436.926,116.287,437.518,118.337,437.077,120.418z M432.434,119.699
				c-0.253,1.77,0.112,2.674,0.891,2.79c0.78,0.118,1.354-0.682,1.663-2.431c0.301-1.7,0.02-2.677-0.857-2.81
				C433.326,117.128,432.663,117.902,432.434,119.699z"/>
			<path d="M446.903,120.74c-0.009-0.003-0.018-0.006-0.027-0.01c-0.644,0.03-1.284,0.07-1.921,0.118
				c0.026-0.47,0.05-0.94,0.072-1.411c0.895-0.059,1.796-0.101,2.704-0.126c0.587,0.203,1.172,0.413,1.755,0.631
				c-0.93,2.427-1.855,4.857-2.775,7.288c-0.609-0.227-1.221-0.445-1.836-0.655C445.547,124.63,446.223,122.684,446.903,120.74z"/>
			<path d="M454.37,123.754c-0.008-0.004-0.017-0.008-0.026-0.013c-0.647-0.042-1.292-0.075-1.933-0.099
				c0.077-0.465,0.151-0.93,0.224-1.395c0.901,0.041,1.807,0.101,2.717,0.179c0.565,0.268,1.128,0.544,1.688,0.827
				c-1.191,2.311-2.378,4.624-3.558,6.939c-0.585-0.295-1.174-0.582-1.766-0.859C452.596,127.472,453.481,125.613,454.37,123.754z"
				/>
			<path d="M466.488,130.945c-0.008-0.006-0.016-0.011-0.024-0.017c-0.637-0.174-1.274-0.338-1.908-0.491
				c0.162-0.442,0.322-0.886,0.48-1.33c0.889,0.223,1.781,0.465,2.675,0.728c0.515,0.38,1.025,0.768,1.532,1.163
				c-1.614,2.038-3.223,4.079-4.827,6.124c-0.529-0.413-1.064-0.816-1.603-1.211C464.035,134.254,465.26,132.598,466.488,130.945z"
				/>
			<path d="M466.699,138.982c0.24-0.279,0.48-0.558,0.719-0.837c0.496,0.024,0.995,0.054,1.496,0.09
				c2.534,0.211,3.896,0.336,4.555-0.303c0.445-0.452,0.448-1.157-0.392-1.936c-0.628-0.58-1.411-0.823-2.002-0.923
				c0.126-0.468,0.25-0.938,0.37-1.41c0.857,0.15,1.985,0.656,2.986,1.593c1.676,1.574,1.806,3.219,0.78,4.187
				c-0.947,0.903-2.521,0.777-4.197,0.571c-0.346-0.054-0.692-0.106-1.037-0.153c-0.006,0.006-0.012,0.012-0.017,0.017
				c0.849,0.791,1.683,1.608,2.5,2.449c-0.361,0.346-0.721,0.692-1.082,1.038C469.874,141.818,468.313,140.356,466.699,138.982z"/>
		</g>
	</g>
	<g>
		<g id="DoubleTwo_4_">
			<path d="M461.162,126.756c0.209-0.255,0.479-0.538,0.804-0.803c0.591-0.482,1.115-0.666,1.517-0.653
				c0.408,0.014,0.725,0.204,0.928,0.589c0.205,0.389,0.218,0.786,0.092,1.149c-0.127,0.366-0.442,0.73-0.904,1.119
				c-0.219,0.184-0.404,0.341-0.564,0.474C462.286,127.881,461.911,127.506,461.162,126.756z M463.151,128.151
				c0.089-0.06,0.206-0.158,0.331-0.261c0.682-0.562,0.883-1.132,0.518-1.757c-0.319-0.546-0.993-0.67-1.841,0.019
				c-0.207,0.168-0.35,0.317-0.438,0.424C462.293,127.206,462.579,127.521,463.151,128.151z"/>
			<path d="M467.17,125.363c0.139,0.702-0.331,1.114-0.818,1.276c-0.545,0.181-1.112,0.033-1.374-0.519
				c-0.278-0.586,0.085-1.188,0.777-1.414C466.474,124.471,467.055,124.782,467.17,125.363z M465.375,125.929
				c0.164,0.391,0.543,0.575,0.912,0.454c0.361-0.119,0.56-0.49,0.456-0.913c-0.079-0.318-0.391-0.682-0.915-0.51
				C465.303,125.132,465.233,125.59,465.375,125.929z"/>
			<path d="M469.644,125.663c-0.014,0.199-0.022,0.374-0.021,0.527c-0.136-0.01-0.204-0.054-0.34-0.058
				c-0.005-0.126-0.007-0.356-0.013-0.356c-0.004,0-0.005,0-0.009,0c-0.109,0-0.332,0.387-0.705,0.407
				c-0.329,0.017-0.745-0.077-0.839-0.75c-0.063-0.448-0.094-0.662-0.157-1.11c0.187-0.026,0.281-0.032,0.469-0.05
				c0.04,0.427,0.06,0.642,0.1,1.069c0.034,0.366,0.182,0.596,0.542,0.582c0.264-0.01,0.45-0.169,0.528-0.323
				c0.024-0.052,0.041-0.115,0.042-0.179c0.013-0.474,0.019-0.711,0.031-1.186c0.189,0.005,0.283,0.01,0.471,0.023
				C469.705,124.821,469.684,125.102,469.644,125.663z"/>
			<path d="M470.223,126.257c0.029-0.129,0.066-0.322,0.092-0.492c0.138-0.925,0.207-1.388,0.344-2.313
				c0.201,0.03,0.301,0.047,0.501,0.086c-0.093,0.477-0.14,0.716-0.233,1.193c0.004,0.001,0.006,0.001,0.01,0.002
				c0.201-0.181,0.53-0.257,0.938-0.14c0.626,0.179,0.901,0.736,0.677,1.277c-0.262,0.637-0.836,0.778-1.292,0.651
				c-0.294-0.082-0.506-0.237-0.619-0.519c-0.005-0.001-0.008-0.001-0.013-0.002c-0.031,0.125-0.046,0.187-0.076,0.312
				C470.421,126.287,470.355,126.276,470.223,126.257z M470.765,125.562c-0.008,0.043-0.008,0.088-0.006,0.129
				c0.032,0.255,0.221,0.463,0.501,0.538c0.401,0.108,0.736-0.085,0.884-0.503c0.13-0.365-0.008-0.776-0.487-0.905
				c-0.306-0.083-0.631,0.018-0.772,0.263c-0.017,0.037-0.041,0.082-0.052,0.137C470.805,125.358,470.792,125.426,470.765,125.562z"
				/>
			<path d="M473.854,124.425c0.189,0.09,0.283,0.138,0.468,0.237c-0.536,1.001-0.805,1.502-1.341,2.503
				c-0.139-0.074-0.209-0.11-0.35-0.177C473.12,125.962,473.364,125.45,473.854,124.425z"/>
			<path d="M474.248,126.879c-0.258,0.399-0.075,0.759,0.247,1.024c0.231,0.19,0.392,0.281,0.548,0.352
				c-0.049,0.093-0.073,0.139-0.123,0.231c-0.144-0.062-0.366-0.186-0.64-0.408c-0.53-0.431-0.674-0.958-0.367-1.455
				c0.306-0.497,0.965-0.654,1.589-0.152c0.701,0.562,0.463,1.16,0.211,1.411c-0.051,0.051-0.099,0.082-0.128,0.104
				C475.084,127.485,474.814,127.264,474.248,126.879z M475.448,127.507c0.154-0.162,0.295-0.523-0.134-0.864
				c-0.385-0.307-0.752-0.15-0.919,0.031C474.834,126.973,475.046,127.14,475.448,127.507z"/>
		</g>
	</g>
</g>
<g id="Hardways">
	<g id="HardSix">
		<rect id="HardSixRect" x="75.926" y="82.276" fill="none" stroke="#000000" stroke-miterlimit="10" width="92" height="25"/>
		<g>
			<rect x="132.926" y="87.276" fill="#FF0000" stroke="#000000" stroke-miterlimit="10" width="13" height="11"/>
			
				<ellipse fill="#FFFFFF" stroke="#FFFFFF" stroke-width="1.0074" stroke-miterlimit="10" cx="143.531" cy="95.141" rx="1.152" ry="0.881"/>
			
				<ellipse fill="#FFFFFF" stroke="#FFFFFF" stroke-width="1.0074" stroke-miterlimit="10" cx="135.469" cy="89.855" rx="1.152" ry="0.881"/>
			
				<ellipse fill="#FFFFFF" stroke="#FFFFFF" stroke-width="0.9456" stroke-miterlimit="10" cx="139.608" cy="92.498" rx="1.015" ry="0.881"/>
		</g>
		<g>
			<rect x="101.926" y="87.276" fill="#FF0000" stroke="#000000" stroke-miterlimit="10" width="12" height="11"/>
			
				<ellipse fill="#FFFFFF" stroke="#FFFFFF" stroke-width="0.9354" stroke-miterlimit="10" cx="111" cy="95.123" rx="1" ry="0.875"/>
			
				<ellipse fill="#FFFFFF" stroke="#FFFFFF" stroke-width="0.9354" stroke-miterlimit="10" cx="104" cy="89.873" rx="1" ry="0.875"/>
			
				<ellipse fill="#FFFFFF" stroke="#FFFFFF" stroke-width="0.8781" stroke-miterlimit="10" cx="107.594" cy="92.498" rx="0.881" ry="0.875"/>
		</g>
	</g>
	<g id="HardEight">
		<rect id="HardEightRect" x="75.926" y="107.276" fill="none" stroke="#000000" stroke-miterlimit="10" width="92" height="22"/>
		<g>
			<rect x="132.926" y="112.276" fill="#FF0000" stroke="#000000" stroke-miterlimit="10" width="13" height="10"/>
			
				<ellipse fill="#FFFFFF" stroke="#FFFFFF" stroke-width="0.9456" stroke-miterlimit="10" cx="143.359" cy="114.855" rx="1.015" ry="0.881"/>
			
				<ellipse fill="#FFFFFF" stroke="#FFFFFF" stroke-width="0.9456" stroke-miterlimit="10" cx="135.241" cy="120.141" rx="1.015" ry="0.881"/>
			
				<ellipse fill="#FFFFFF" stroke="#FFFFFF" stroke-width="1.0073" stroke-miterlimit="10" cx="143.223" cy="120.141" rx="1.152" ry="0.881"/>
			
				<ellipse fill="#FFFFFF" stroke="#FFFFFF" stroke-width="1.0073" stroke-miterlimit="10" cx="135.161" cy="114.855" rx="1.152" ry="0.881"/>
		</g>
		<g>
			<rect x="101.926" y="112.276" fill="#FF0000" stroke="#000000" stroke-miterlimit="10" width="12" height="10"/>
			
				<ellipse fill="#FFFFFF" stroke="#FFFFFF" stroke-width="0.9456" stroke-miterlimit="10" cx="111.976" cy="114.855" rx="1.015" ry="0.881"/>
			
				<ellipse fill="#FFFFFF" stroke="#FFFFFF" stroke-width="0.9456" stroke-miterlimit="10" cx="103.857" cy="120.141" rx="1.015" ry="0.881"/>
			
				<ellipse fill="#FFFFFF" stroke="#FFFFFF" stroke-width="1.0073" stroke-miterlimit="10" cx="111.839" cy="120.141" rx="1.152" ry="0.881"/>
			
				<ellipse fill="#FFFFFF" stroke="#FFFFFF" stroke-width="1.0073" stroke-miterlimit="10" cx="103.777" cy="114.855" rx="1.152" ry="0.881"/>
		</g>
	</g>
	<g id="HardTen">
		<rect id="HardTenRect" x="167.926" y="107.276" fill="none" stroke="#000000" stroke-miterlimit="10" width="92" height="22"/>
		<g>
			<rect x="185.926" y="113.276" fill="#FF0000" stroke="#000000" stroke-miterlimit="10" width="13" height="9"/>
			
				<ellipse fill="#FFFFFF" stroke="#FFFFFF" stroke-width="0.9456" stroke-miterlimit="10" cx="196.668" cy="114.855" rx="1.015" ry="0.881"/>
			
				<ellipse fill="#FFFFFF" stroke="#FFFFFF" stroke-width="0.9456" stroke-miterlimit="10" cx="188.549" cy="120.141" rx="1.015" ry="0.881"/>
			
				<ellipse fill="#FFFFFF" stroke="#FFFFFF" stroke-width="1.0073" stroke-miterlimit="10" cx="196.531" cy="120.141" rx="1.152" ry="0.881"/>
			
				<ellipse fill="#FFFFFF" stroke="#FFFFFF" stroke-width="1.0073" stroke-miterlimit="10" cx="188.469" cy="114.855" rx="1.152" ry="0.881"/>
			
				<ellipse fill="#FFFFFF" stroke="#FFFFFF" stroke-width="0.9456" stroke-miterlimit="10" cx="192.608" cy="117.498" rx="1.015" ry="0.881"/>
		</g>
		<g>
			<rect x="227.926" y="113.276" fill="#FF0000" stroke="#000000" stroke-miterlimit="10" width="14" height="9"/>
			
				<ellipse fill="#FFFFFF" stroke="#FFFFFF" stroke-width="0.9456" stroke-miterlimit="10" cx="238.668" cy="114.855" rx="1.015" ry="0.881"/>
			
				<ellipse fill="#FFFFFF" stroke="#FFFFFF" stroke-width="0.9456" stroke-miterlimit="10" cx="230.549" cy="120.141" rx="1.015" ry="0.881"/>
			
				<ellipse fill="#FFFFFF" stroke="#FFFFFF" stroke-width="1.0073" stroke-miterlimit="10" cx="238.531" cy="120.141" rx="1.152" ry="0.881"/>
			
				<ellipse fill="#FFFFFF" stroke="#FFFFFF" stroke-width="1.0073" stroke-miterlimit="10" cx="230.469" cy="114.855" rx="1.152" ry="0.881"/>
			
				<ellipse fill="#FFFFFF" stroke="#FFFFFF" stroke-width="0.9456" stroke-miterlimit="10" cx="234.608" cy="117.498" rx="1.015" ry="0.881"/>
		</g>
	</g>
	<g id="HardFour">
		<rect id="HardFourRect" x="167.926" y="82.276" fill="none" stroke="#000000" stroke-miterlimit="10" width="92" height="25"/>
		<g>
			<rect x="227.926" y="87.276" fill="#FF0000" stroke="#000000" stroke-miterlimit="10" width="14" height="11"/>
			
				<ellipse fill="#FFFFFF" stroke="#FFFFFF" stroke-width="0.9456" stroke-miterlimit="10" cx="238.559" cy="95.141" rx="1.015" ry="0.881"/>
			
				<ellipse fill="#FFFFFF" stroke="#FFFFFF" stroke-width="0.9456" stroke-miterlimit="10" cx="230.441" cy="89.855" rx="1.015" ry="0.881"/>
		</g>
		<g>
			<rect x="185.926" y="87.276" fill="#FF0000" stroke="#000000" stroke-miterlimit="10" width="13" height="11"/>
			
				<ellipse fill="#FFFFFF" stroke="#FFFFFF" stroke-width="0.9456" stroke-miterlimit="10" cx="196.559" cy="95.141" rx="1.015" ry="0.881"/>
			
				<ellipse fill="#FFFFFF" stroke="#FFFFFF" stroke-width="0.9456" stroke-miterlimit="10" cx="188.441" cy="89.855" rx="1.015" ry="0.881"/>
		</g>
	</g>
</g>
<g id="Hop">
	<g id="HopSoft">
		<g id="HopFour">
			<rect id="HopFourRect" x="74.926" y="13.276" fill="none" stroke="#FFFFFF" stroke-miterlimit="10" width="14" height="28"/>
			<g>
				<rect x="75.926" y="13.276" fill="#FF0000" stroke="#000000" stroke-miterlimit="10" width="13" height="11"/>
				<circle fill="#FFFFFF" stroke="#FFFFFF" stroke-miterlimit="10" cx="82.5" cy="18.776" r="1"/>
			</g>
			<g>
				<rect x="75.926" y="28.276" fill="#FF0000" stroke="#000000" stroke-miterlimit="10" width="13" height="11"/>
				
					<ellipse fill="#FFFFFF" stroke="#FFFFFF" stroke-width="1.0653" stroke-miterlimit="10" cx="86.472" cy="36.776" rx="1.135" ry="1"/>
				
					<ellipse fill="#FFFFFF" stroke="#FFFFFF" stroke-width="1.0653" stroke-miterlimit="10" cx="78.528" cy="30.776" rx="1.135" ry="1"/>
				<circle fill="#FFFFFF" stroke="#FFFFFF" stroke-miterlimit="10" cx="82.607" cy="33.776" r="1"/>
			</g>
		</g>
		<g id="HopEight">
			<rect id="HopEightRect" x="189.926" y="13.276" fill="none" stroke="#FFFFFF" stroke-miterlimit="10" width="27" height="28"/>
			<g>
				<rect x="190.926" y="13.276" fill="#FF0000" stroke="#000000" stroke-miterlimit="10" width="13" height="11"/>
				
					<ellipse fill="#FFFFFF" stroke="#FFFFFF" stroke-width="0.966" stroke-miterlimit="10" cx="201.462" cy="21.074" rx="1.066" ry="0.875"/>
				
					<ellipse fill="#FFFFFF" stroke="#FFFFFF" stroke-width="0.9186" stroke-miterlimit="10" cx="197.752" cy="18.449" rx="0.964" ry="0.875"/>
				
					<ellipse fill="#FFFFFF" stroke="#FFFFFF" stroke-width="0.966" stroke-miterlimit="10" cx="193.997" cy="15.824" rx="1.066" ry="0.875"/>
			</g>
			<g>
				<rect x="204.926" y="13.276" fill="#FF0000" stroke="#000000" stroke-miterlimit="10" width="12" height="11"/>
				
					<ellipse fill="#FFFFFF" stroke="#FFFFFF" stroke-width="0.9186" stroke-miterlimit="10" cx="214.604" cy="21.074" rx="0.964" ry="0.875"/>
				
					<ellipse fill="#FFFFFF" stroke="#FFFFFF" stroke-width="0.9186" stroke-miterlimit="10" cx="207.854" cy="15.824" rx="0.964" ry="0.875"/>
			</g>
			<g>
				<rect x="190.926" y="28.276" fill="#FF0000" stroke="#000000" stroke-miterlimit="10" width="13" height="11"/>
				
					<ellipse fill="#FFFFFF" stroke="#FFFFFF" stroke-width="0.982" stroke-miterlimit="10" cx="201.69" cy="30.498" rx="0.964" ry="1"/>
				
					<ellipse fill="#FFFFFF" stroke="#FFFFFF" stroke-width="0.982" stroke-miterlimit="10" cx="193.975" cy="36.498" rx="0.964" ry="1"/>
				
					<ellipse fill="#FFFFFF" stroke="#FFFFFF" stroke-width="1.0461" stroke-miterlimit="10" cx="201.56" cy="36.498" rx="1.094" ry="1"/>
				
					<ellipse fill="#FFFFFF" stroke="#FFFFFF" stroke-width="1.0461" stroke-miterlimit="10" cx="193.899" cy="30.498" rx="1.094" ry="1"/>
				
					<ellipse fill="#FFFFFF" stroke="#FFFFFF" stroke-width="0.982" stroke-miterlimit="10" cx="197.833" cy="33.498" rx="0.964" ry="1"/>
			</g>
			<g>
				<rect x="204.926" y="28.276" fill="#FF0000" stroke="#000000" stroke-miterlimit="10" width="12" height="11"/>
				
					<ellipse fill="#FFFFFF" stroke="#FFFFFF" stroke-width="0.982" stroke-miterlimit="10" cx="215.087" cy="36.498" rx="0.964" ry="1"/>
				
					<ellipse fill="#FFFFFF" stroke="#FFFFFF" stroke-width="0.982" stroke-miterlimit="10" cx="207.372" cy="30.498" rx="0.964" ry="1"/>
				
					<ellipse fill="#FFFFFF" stroke="#FFFFFF" stroke-width="0.982" stroke-miterlimit="10" cx="207.372" cy="33.498" rx="0.964" ry="1"/>
				
					<ellipse fill="#FFFFFF" stroke="#FFFFFF" stroke-width="0.982" stroke-miterlimit="10" cx="215.087" cy="30.498" rx="0.964" ry="1"/>
				
					<ellipse fill="#FFFFFF" stroke="#FFFFFF" stroke-width="0.982" stroke-miterlimit="10" cx="207.372" cy="36.498" rx="0.964" ry="1"/>
				
					<ellipse fill="#FFFFFF" stroke="#FFFFFF" stroke-width="0.982" stroke-miterlimit="10" cx="215.087" cy="33.498" rx="0.964" ry="1"/>
			</g>
		</g>
		<g id="HopFive">
			<rect id="HopFiveRect" x="89.926" y="13.276" fill="none" stroke="#FFFFFF" stroke-miterlimit="10" width="29" height="28"/>
			<g>
				<rect x="90.926" y="13.276" fill="#FF0000" stroke="#000000" stroke-miterlimit="10" width="13" height="11"/>
				<circle fill="#FFFFFF" stroke="#FFFFFF" stroke-miterlimit="10" cx="97.5" cy="18.776" r="1"/>
			</g>
			<g>
				<rect x="90.926" y="28.276" fill="#FF0000" stroke="#000000" stroke-miterlimit="10" width="13" height="11"/>
				<circle fill="#FFFFFF" stroke="#FFFFFF" stroke-miterlimit="10" cx="101.5" cy="30.776" r="1"/>
				<circle fill="#FFFFFF" stroke="#FFFFFF" stroke-miterlimit="10" cx="93.5" cy="36.776" r="1"/>
				
					<ellipse fill="#FFFFFF" stroke="#FFFFFF" stroke-width="1.0653" stroke-miterlimit="10" cx="101.365" cy="36.776" rx="1.135" ry="1"/>
				
					<ellipse fill="#FFFFFF" stroke="#FFFFFF" stroke-width="1.0653" stroke-miterlimit="10" cx="93.421" cy="30.776" rx="1.135" ry="1"/>
			</g>
			<g>
				<rect x="104.926" y="28.276" fill="#FF0000" stroke="#000000" stroke-miterlimit="10" width="13" height="11"/>
				
					<ellipse fill="#FFFFFF" stroke="#FFFFFF" stroke-width="1.0653" stroke-miterlimit="10" cx="115.365" cy="36.776" rx="1.135" ry="1"/>
				
					<ellipse fill="#FFFFFF" stroke="#FFFFFF" stroke-width="1.0653" stroke-miterlimit="10" cx="107.421" cy="30.776" rx="1.135" ry="1"/>
				<circle fill="#FFFFFF" stroke="#FFFFFF" stroke-miterlimit="10" cx="111.5" cy="33.776" r="1"/>
			</g>
			<g>
				<rect x="104.926" y="13.276" fill="#FF0000" stroke="#000000" stroke-miterlimit="10" width="13" height="11"/>
				<circle fill="#FFFFFF" stroke="#FFFFFF" stroke-miterlimit="10" cx="115.074" cy="21.776" r="1"/>
				<circle fill="#FFFFFF" stroke="#FFFFFF" stroke-miterlimit="10" cx="107.074" cy="15.776" r="1"/>
			</g>
		</g>
		<g id="HopSeven">
			<rect id="HopSevenRect" x="146.926" y="13.276" fill="none" stroke="#FFFFFF" stroke-miterlimit="10" width="43" height="28"/>
			<g>
				<rect x="175.926" y="13.276" fill="#FF0000" stroke="#000000" stroke-miterlimit="10" width="13" height="11"/>
				<circle fill="#FFFFFF" stroke="#FFFFFF" stroke-miterlimit="10" cx="182.223" cy="18.776" r="1"/>
			</g>
			<g>
				<rect x="147.926" y="13.276" fill="#FF0000" stroke="#000000" stroke-miterlimit="10" width="13" height="11"/>
				
					<ellipse fill="#FFFFFF" stroke="#FFFFFF" stroke-width="1.0516" stroke-miterlimit="10" cx="157.847" cy="21.776" rx="1.106" ry="1"/>
				<circle fill="#FFFFFF" stroke="#FFFFFF" stroke-miterlimit="10" cx="154" cy="18.776" r="1"/>
				
					<ellipse fill="#FFFFFF" stroke="#FFFFFF" stroke-width="1.0516" stroke-miterlimit="10" cx="150.106" cy="15.776" rx="1.106" ry="1"/>
			</g>
			<g>
				<rect x="161.926" y="13.276" fill="#FF0000" stroke="#000000" stroke-miterlimit="10" width="13" height="11"/>
				
					<ellipse fill="#FFFFFF" stroke="#FFFFFF" stroke-width="1.0516" stroke-miterlimit="10" cx="171.519" cy="21.776" rx="1.106" ry="1"/>
				
					<ellipse fill="#FFFFFF" stroke="#FFFFFF" stroke-width="1.0516" stroke-miterlimit="10" cx="163.778" cy="15.776" rx="1.106" ry="1"/>
			</g>
			<g>
				<rect x="147.926" y="28.276" fill="#FF0000" stroke="#000000" stroke-miterlimit="10" width="13" height="11"/>
				<circle fill="#FFFFFF" stroke="#FFFFFF" stroke-miterlimit="10" cx="158" cy="30.776" r="1"/>
				<circle fill="#FFFFFF" stroke="#FFFFFF" stroke-miterlimit="10" cx="150" cy="36.776" r="1"/>
				
					<ellipse fill="#FFFFFF" stroke="#FFFFFF" stroke-width="1.0653" stroke-miterlimit="10" cx="157.865" cy="36.776" rx="1.135" ry="1"/>
				
					<ellipse fill="#FFFFFF" stroke="#FFFFFF" stroke-width="1.0653" stroke-miterlimit="10" cx="149.921" cy="30.776" rx="1.135" ry="1"/>
			</g>
			<g>
				<rect x="161.926" y="28.276" fill="#FF0000" stroke="#000000" stroke-miterlimit="10" width="13" height="11"/>
				<circle fill="#FFFFFF" stroke="#FFFFFF" stroke-miterlimit="10" cx="172" cy="30.776" r="1"/>
				<circle fill="#FFFFFF" stroke="#FFFFFF" stroke-miterlimit="10" cx="164" cy="36.776" r="1"/>
				
					<ellipse fill="#FFFFFF" stroke="#FFFFFF" stroke-width="1.0653" stroke-miterlimit="10" cx="171.865" cy="36.776" rx="1.135" ry="1"/>
				
					<ellipse fill="#FFFFFF" stroke="#FFFFFF" stroke-width="1.0653" stroke-miterlimit="10" cx="163.921" cy="30.776" rx="1.135" ry="1"/>
				<circle fill="#FFFFFF" stroke="#FFFFFF" stroke-miterlimit="10" cx="168" cy="33.776" r="1"/>
			</g>
			<g>
				<rect x="175.926" y="28.276" fill="#FF0000" stroke="#000000" stroke-miterlimit="10" width="13" height="11"/>
				<circle fill="#FFFFFF" stroke="#FFFFFF" stroke-miterlimit="10" cx="186.074" cy="36.776" r="1"/>
				<circle fill="#FFFFFF" stroke="#FFFFFF" stroke-miterlimit="10" cx="178.074" cy="30.776" r="1"/>
				<circle fill="#FFFFFF" stroke="#FFFFFF" stroke-miterlimit="10" cx="178.074" cy="33.776" r="1"/>
				<circle fill="#FFFFFF" stroke="#FFFFFF" stroke-miterlimit="10" cx="186.074" cy="30.776" r="1"/>
				<circle fill="#FFFFFF" stroke="#FFFFFF" stroke-miterlimit="10" cx="178.074" cy="36.776" r="1"/>
				<circle fill="#FFFFFF" stroke="#FFFFFF" stroke-miterlimit="10" cx="186.074" cy="33.776" r="1"/>
			</g>
		</g>
		<g id="HopNine">
			<rect id="HopNineRect" x="217.926" y="13.276" fill="none" stroke="#FFFFFF" stroke-miterlimit="10" width="30" height="28"/>
			<g>
				<rect x="232.926" y="13.276" fill="#FF0000" stroke="#000000" stroke-miterlimit="10" width="13" height="11"/>
				<circle fill="#FFFFFF" stroke="#FFFFFF" stroke-miterlimit="10" cx="239.523" cy="18.776" r="1"/>
				
					<ellipse fill="#FFFFFF" stroke="#FFFFFF" stroke-width="1.0516" stroke-miterlimit="10" cx="243.371" cy="21.776" rx="1.106" ry="1"/>
				
					<ellipse fill="#FFFFFF" stroke="#FFFFFF" stroke-width="1.0516" stroke-miterlimit="10" cx="235.629" cy="15.776" rx="1.106" ry="1"/>
			</g>
			<g>
				<rect x="218.926" y="28.276" fill="#FF0000" stroke="#000000" stroke-miterlimit="10" width="13" height="11"/>
				<circle fill="#FFFFFF" stroke="#FFFFFF" stroke-miterlimit="10" cx="229.5" cy="30.776" r="1"/>
				<circle fill="#FFFFFF" stroke="#FFFFFF" stroke-miterlimit="10" cx="221.5" cy="36.776" r="1"/>
				
					<ellipse fill="#FFFFFF" stroke="#FFFFFF" stroke-width="1.0653" stroke-miterlimit="10" cx="229.365" cy="36.776" rx="1.135" ry="1"/>
				
					<ellipse fill="#FFFFFF" stroke="#FFFFFF" stroke-width="1.0653" stroke-miterlimit="10" cx="221.421" cy="30.776" rx="1.135" ry="1"/>
				<circle fill="#FFFFFF" stroke="#FFFFFF" stroke-miterlimit="10" cx="225.5" cy="33.776" r="1"/>
			</g>
			<g>
				<rect x="232.926" y="28.276" fill="#FF0000" stroke="#000000" stroke-miterlimit="10" width="13" height="11"/>
				<circle fill="#FFFFFF" stroke="#FFFFFF" stroke-miterlimit="10" cx="243.5" cy="36.776" r="1"/>
				<circle fill="#FFFFFF" stroke="#FFFFFF" stroke-miterlimit="10" cx="235.5" cy="30.776" r="1"/>
				<circle fill="#FFFFFF" stroke="#FFFFFF" stroke-miterlimit="10" cx="235.5" cy="33.776" r="1"/>
				<circle fill="#FFFFFF" stroke="#FFFFFF" stroke-miterlimit="10" cx="243.5" cy="30.776" r="1"/>
				<circle fill="#FFFFFF" stroke="#FFFFFF" stroke-miterlimit="10" cx="235.5" cy="36.776" r="1"/>
				<circle fill="#FFFFFF" stroke="#FFFFFF" stroke-miterlimit="10" cx="243.5" cy="33.776" r="1"/>
			</g>
			<g>
				<rect x="218.926" y="13.276" fill="#FF0000" stroke="#000000" stroke-miterlimit="10" width="13" height="11"/>
				<circle fill="#FFFFFF" stroke="#FFFFFF" stroke-miterlimit="10" cx="229.5" cy="15.776" r="1"/>
				<circle fill="#FFFFFF" stroke="#FFFFFF" stroke-miterlimit="10" cx="221.5" cy="21.776" r="1"/>
				
					<ellipse fill="#FFFFFF" stroke="#FFFFFF" stroke-width="1.0653" stroke-miterlimit="10" cx="229.365" cy="21.776" rx="1.135" ry="1"/>
				
					<ellipse fill="#FFFFFF" stroke="#FFFFFF" stroke-width="1.0653" stroke-miterlimit="10" cx="221.421" cy="15.776" rx="1.135" ry="1"/>
			</g>
		</g>
		<g id="HopSix">
			<rect id="HopSixRect" x="119.926" y="13.276" fill="none" stroke="#FFFFFF" stroke-miterlimit="10" width="26" height="28"/>
			<g>
				<rect x="133.926" y="13.276" fill="#FF0000" stroke="#000000" stroke-miterlimit="10" width="12" height="11"/>
				
					<ellipse fill="#FFFFFF" stroke="#FFFFFF" stroke-width="0.9813" stroke-miterlimit="10" cx="139.757" cy="18.776" rx="0.963" ry="1"/>
			</g>
			<g>
				<rect x="119.926" y="13.276" fill="#FF0000" stroke="#000000" stroke-miterlimit="10" width="13" height="11"/>
				
					<ellipse fill="#FFFFFF" stroke="#FFFFFF" stroke-width="0.9813" stroke-miterlimit="10" cx="130.127" cy="21.776" rx="0.963" ry="1"/>
				
					<ellipse fill="#FFFFFF" stroke="#FFFFFF" stroke-width="0.9813" stroke-miterlimit="10" cx="122.423" cy="15.776" rx="0.963" ry="1"/>
			</g>
			<g>
				<rect x="119.926" y="28.276" fill="#FF0000" stroke="#000000" stroke-miterlimit="10" width="13" height="11"/>
				
					<ellipse fill="#FFFFFF" stroke="#FFFFFF" stroke-width="0.9813" stroke-miterlimit="10" cx="130.711" cy="30.776" rx="0.963" ry="1"/>
				
					<ellipse fill="#FFFFFF" stroke="#FFFFFF" stroke-width="0.9813" stroke-miterlimit="10" cx="123.008" cy="36.776" rx="0.963" ry="1"/>
				
					<ellipse fill="#FFFFFF" stroke="#FFFFFF" stroke-width="1.0454" stroke-miterlimit="10" cx="130.581" cy="36.776" rx="1.093" ry="1"/>
				
					<ellipse fill="#FFFFFF" stroke="#FFFFFF" stroke-width="1.0454" stroke-miterlimit="10" cx="122.932" cy="30.776" rx="1.093" ry="1"/>
			</g>
			<g>
				<rect x="133.926" y="28.276" fill="#FF0000" stroke="#000000" stroke-miterlimit="10" width="12" height="11"/>
				
					<ellipse fill="#FFFFFF" stroke="#FFFFFF" stroke-width="0.9387" stroke-miterlimit="10" cx="143.857" cy="30.776" rx="0.881" ry="1"/>
				
					<ellipse fill="#FFFFFF" stroke="#FFFFFF" stroke-width="0.9387" stroke-miterlimit="10" cx="136.808" cy="36.776" rx="0.881" ry="1"/>
				<circle fill="#FFFFFF" stroke="#FFFFFF" stroke-miterlimit="10" cx="143.738" cy="36.776" r="1"/>
				<circle fill="#FFFFFF" stroke="#FFFFFF" stroke-miterlimit="10" cx="136.738" cy="30.776" r="1"/>
				
					<ellipse fill="#FFFFFF" stroke="#FFFFFF" stroke-width="0.9387" stroke-miterlimit="10" cx="140.332" cy="33.776" rx="0.881" ry="1"/>
			</g>
		</g>
		<g id="HopTen">
			<rect id="HopTenRect" x="246.926" y="13.276" fill="none" stroke="#FFFFFF" stroke-miterlimit="10" width="16" height="28"/>
			<g>
				<rect x="247.926" y="28.276" fill="#FF0000" stroke="#000000" stroke-miterlimit="10" width="13" height="11"/>
				<circle fill="#FFFFFF" stroke="#FFFFFF" stroke-miterlimit="10" cx="258.5" cy="36.776" r="1"/>
				<circle fill="#FFFFFF" stroke="#FFFFFF" stroke-miterlimit="10" cx="250.5" cy="30.776" r="1"/>
				<circle fill="#FFFFFF" stroke="#FFFFFF" stroke-miterlimit="10" cx="250.5" cy="33.776" r="1"/>
				<circle fill="#FFFFFF" stroke="#FFFFFF" stroke-miterlimit="10" cx="258.5" cy="30.776" r="1"/>
				<circle fill="#FFFFFF" stroke="#FFFFFF" stroke-miterlimit="10" cx="250.5" cy="36.776" r="1"/>
				<circle fill="#FFFFFF" stroke="#FFFFFF" stroke-miterlimit="10" cx="258.5" cy="33.776" r="1"/>
			</g>
			<g>
				<rect x="247.926" y="13.276" fill="#FF0000" stroke="#000000" stroke-miterlimit="10" width="13" height="11"/>
				<circle fill="#FFFFFF" stroke="#FFFFFF" stroke-miterlimit="10" cx="258.607" cy="15.776" r="1"/>
				<circle fill="#FFFFFF" stroke="#FFFFFF" stroke-miterlimit="10" cx="250.607" cy="21.776" r="1"/>
				
					<ellipse fill="#FFFFFF" stroke="#FFFFFF" stroke-width="1.0653" stroke-miterlimit="10" cx="258.472" cy="21.776" rx="1.135" ry="1"/>
				
					<ellipse fill="#FFFFFF" stroke="#FFFFFF" stroke-width="1.0653" stroke-miterlimit="10" cx="250.528" cy="15.776" rx="1.135" ry="1"/>
			</g>
		</g>
	</g>
	<g id="HopHard_1_">
		<g id="HopHardSix">
			<rect id="HopHardSixRect" x="119.926" y="41.276" fill="none" stroke="#FFFFFF" stroke-miterlimit="10" width="27" height="27"/>
			<g>
				<rect x="133.926" y="55.276" fill="#FF0000" stroke="#000000" stroke-miterlimit="10" width="13" height="11"/>
				
					<ellipse fill="#FFFFFF" stroke="#FFFFFF" stroke-width="1.0154" stroke-miterlimit="10" cx="144.109" cy="63.539" rx="1.031" ry="1"/>
				
					<ellipse fill="#FFFFFF" stroke="#FFFFFF" stroke-width="1.0154" stroke-miterlimit="10" cx="136.891" cy="57.539" rx="1.031" ry="1"/>
				
					<ellipse fill="#FFFFFF" stroke="#FFFFFF" stroke-width="0.9532" stroke-miterlimit="10" cx="140.597" cy="60.539" rx="0.909" ry="1"/>
			</g>
			<g>
				<rect x="120.926" y="42.276" fill="#FF0000" stroke="#000000" stroke-miterlimit="10" width="13" height="11"/>
				
					<ellipse fill="#FFFFFF" stroke="#FFFFFF" stroke-width="1.0653" stroke-miterlimit="10" cx="131.472" cy="50.776" rx="1.135" ry="1"/>
				
					<ellipse fill="#FFFFFF" stroke="#FFFFFF" stroke-width="1.0653" stroke-miterlimit="10" cx="123.528" cy="44.776" rx="1.135" ry="1"/>
				<circle fill="#FFFFFF" stroke="#FFFFFF" stroke-miterlimit="10" cx="127.607" cy="47.776" r="1"/>
			</g>
		</g>
		<g id="HopHardFour">
			
				<rect id="HopHardFourRect" x="74.926" y="41.276" opacity="0.94" fill="none" stroke="#FFFFFF" stroke-miterlimit="10" width="14" height="28"/>
			<g>
				<rect x="75.926" y="55.276" fill="#FF0000" stroke="#000000" stroke-miterlimit="10" width="13" height="11"/>
				<circle fill="#FFFFFF" stroke="#FFFFFF" stroke-miterlimit="10" cx="86.5" cy="63.776" r="1"/>
				<circle fill="#FFFFFF" stroke="#FFFFFF" stroke-miterlimit="10" cx="78.5" cy="57.776" r="1"/>
			</g>
			<g>
				<rect x="75.926" y="42.276" fill="#FF0000" stroke="#000000" stroke-miterlimit="10" width="13" height="11"/>
				<circle fill="#FFFFFF" stroke="#FFFFFF" stroke-miterlimit="10" cx="86.5" cy="50.776" r="1"/>
				<circle fill="#FFFFFF" stroke="#FFFFFF" stroke-miterlimit="10" cx="78.5" cy="44.776" r="1"/>
			</g>
		</g>
		<g id="HopHardEight">
			
				<rect id="HopHardEightRect" x="189.926" y="41.276" fill="none" stroke="#FFFFFF" stroke-miterlimit="10" width="28" height="28"/>
			<g>
				<rect x="203.926" y="56.276" fill="#FF0000" stroke="#000000" stroke-miterlimit="10" width="13" height="11"/>
				
					<ellipse fill="#FFFFFF" stroke="#FFFFFF" stroke-width="1.0198" stroke-miterlimit="10" cx="214.651" cy="58.378" rx="1" ry="1.04"/>
				
					<ellipse fill="#FFFFFF" stroke="#FFFFFF" stroke-width="1.0198" stroke-miterlimit="10" cx="206.651" cy="64.618" rx="1" ry="1.04"/>
				
					<ellipse fill="#FFFFFF" stroke="#FFFFFF" stroke-width="1.0864" stroke-miterlimit="10" cx="214.516" cy="64.618" rx="1.135" ry="1.04"/>
				
					<ellipse fill="#FFFFFF" stroke="#FFFFFF" stroke-width="1.0864" stroke-miterlimit="10" cx="206.572" cy="58.378" rx="1.135" ry="1.04"/>
			</g>
			<g>
				<rect x="190.926" y="42.276" fill="#FF0000" stroke="#000000" stroke-miterlimit="10" width="13" height="11"/>
				
					<ellipse fill="#FFFFFF" stroke="#FFFFFF" stroke-width="1.0198" stroke-miterlimit="10" cx="201.607" cy="44.378" rx="1" ry="1.04"/>
				
					<ellipse fill="#FFFFFF" stroke="#FFFFFF" stroke-width="1.0198" stroke-miterlimit="10" cx="193.607" cy="50.618" rx="1" ry="1.04"/>
				
					<ellipse fill="#FFFFFF" stroke="#FFFFFF" stroke-width="1.0864" stroke-miterlimit="10" cx="201.472" cy="50.618" rx="1.135" ry="1.04"/>
				
					<ellipse fill="#FFFFFF" stroke="#FFFFFF" stroke-width="1.0864" stroke-miterlimit="10" cx="193.528" cy="44.378" rx="1.135" ry="1.04"/>
			</g>
		</g>
		<g id="HopHardTen">
			<rect id="HopHardTenRect" x="246.926" y="41.276" fill="none" stroke="#FFFFFF" stroke-miterlimit="10" width="16" height="28"/>
			<g>
				<rect x="247.926" y="56.276" fill="#FF0000" stroke="#000000" stroke-miterlimit="10" width="13" height="11"/>
				<circle fill="#FFFFFF" stroke="#FFFFFF" stroke-miterlimit="10" cx="258.607" cy="58.498" r="1"/>
				<circle fill="#FFFFFF" stroke="#FFFFFF" stroke-miterlimit="10" cx="250.607" cy="64.498" r="1"/>
				
					<ellipse fill="#FFFFFF" stroke="#FFFFFF" stroke-width="1.0653" stroke-miterlimit="10" cx="258.472" cy="64.498" rx="1.135" ry="1"/>
				
					<ellipse fill="#FFFFFF" stroke="#FFFFFF" stroke-width="1.0653" stroke-miterlimit="10" cx="250.528" cy="58.498" rx="1.135" ry="1"/>
				<circle fill="#FFFFFF" stroke="#FFFFFF" stroke-miterlimit="10" cx="254.607" cy="61.498" r="1"/>
			</g>
			<g>
				<rect x="247.926" y="42.276" fill="#FF0000" stroke="#000000" stroke-miterlimit="10" width="13" height="11"/>
				<circle fill="#FFFFFF" stroke="#FFFFFF" stroke-miterlimit="10" cx="258.607" cy="44.498" r="1"/>
				<circle fill="#FFFFFF" stroke="#FFFFFF" stroke-miterlimit="10" cx="250.607" cy="50.498" r="1"/>
				
					<ellipse fill="#FFFFFF" stroke="#FFFFFF" stroke-width="1.0653" stroke-miterlimit="10" cx="258.472" cy="50.498" rx="1.135" ry="1"/>
				
					<ellipse fill="#FFFFFF" stroke="#FFFFFF" stroke-width="1.0653" stroke-miterlimit="10" cx="250.528" cy="44.498" rx="1.135" ry="1"/>
				<circle fill="#FFFFFF" stroke="#FFFFFF" stroke-miterlimit="10" cx="254.607" cy="47.498" r="1"/>
			</g>
		</g>
	</g>
</g>
<g id="CenterBets">
	<g id="AnyCraps">
		<g>
			<path fill="none" stroke="#000000" stroke-width="0.6415" stroke-miterlimit="10" d="M281,105.276c-5.518,0-10,4.482-10,10
				s4.482,10,10,10s10-4.482,10-10S286.518,105.276,281,105.276z M282.272,119.521c0.92,0,1.94-0.192,2.541-0.423l0.46,2.284
				c-0.56,0.269-1.82,0.557-3.46,0.557c-4.661,0-7.062-2.783-7.062-6.469c0-4.415,3.281-6.872,7.361-6.872
				c1.581,0,2.781,0.308,3.321,0.575l-0.62,2.323c-0.62-0.249-1.48-0.479-2.561-0.479c-2.42,0-4.301,1.4-4.301,4.28
				C277.951,117.888,279.551,119.521,282.272,119.521z"/>
		</g>
	</g>
	<g id="YoEleven">
		<g>
			<path fill="none" stroke="#000000" stroke-width="0.6415" stroke-miterlimit="10" d="M306.926,102.276c-5.523,0-10,4.477-10,10
				c0,5.523,4.477,10,10,10s10-4.477,10-10C316.926,106.753,312.448,102.276,306.926,102.276z M311.633,118.747h-8.603v-12.938
				h8.322v2.399h-5.262v2.688h4.961v2.381h-4.961v3.07h5.542V118.747z"/>
		</g>
	</g>
	<g id="CELine">
		<g>
			
				<line fill="none" stroke="#000000" stroke-width="1.1405" stroke-miterlimit="10" x1="290.906" y1="114.776" x2="297.094" y2="113.362"/>
		</g>
	</g>
</g>
<g id="LineBets">
	<g id="Horn">
		<g id="HornTwelve">
			
				<rect id="HornTwelveRect" x="173.926" y="144.276" fill="none" stroke="#000000" stroke-miterlimit="10" width="86" height="25"/>
			<g>
				<rect x="218.926" y="149.276" fill="#FF0000" stroke="#000000" stroke-miterlimit="10" width="13" height="11"/>
				
					<ellipse fill="#FFFFFF" stroke="#FFFFFF" stroke-width="1.008" stroke-miterlimit="10" cx="229.676" cy="157.776" rx="1.016" ry="1"/>
				
					<ellipse fill="#FFFFFF" stroke="#FFFFFF" stroke-width="1.008" stroke-miterlimit="10" cx="221.548" cy="151.776" rx="1.016" ry="1"/>
				
					<ellipse fill="#FFFFFF" stroke="#FFFFFF" stroke-width="1.008" stroke-miterlimit="10" cx="221.548" cy="154.776" rx="1.016" ry="1"/>
				
					<ellipse fill="#FFFFFF" stroke="#FFFFFF" stroke-width="1.008" stroke-miterlimit="10" cx="229.676" cy="151.776" rx="1.016" ry="1"/>
				
					<ellipse fill="#FFFFFF" stroke="#FFFFFF" stroke-width="1.008" stroke-miterlimit="10" cx="221.548" cy="157.776" rx="1.016" ry="1"/>
				
					<ellipse fill="#FFFFFF" stroke="#FFFFFF" stroke-width="1.008" stroke-miterlimit="10" cx="229.676" cy="154.776" rx="1.016" ry="1"/>
			</g>
			<g>
				<rect x="204.926" y="149.276" fill="#FF0000" stroke="#000000" stroke-miterlimit="10" width="13" height="11"/>
				
					<ellipse fill="#FFFFFF" stroke="#FFFFFF" stroke-width="1.008" stroke-miterlimit="10" cx="215.452" cy="157.776" rx="1.016" ry="1"/>
				
					<ellipse fill="#FFFFFF" stroke="#FFFFFF" stroke-width="1.008" stroke-miterlimit="10" cx="207.324" cy="151.776" rx="1.016" ry="1"/>
				
					<ellipse fill="#FFFFFF" stroke="#FFFFFF" stroke-width="1.008" stroke-miterlimit="10" cx="207.324" cy="154.776" rx="1.016" ry="1"/>
				
					<ellipse fill="#FFFFFF" stroke="#FFFFFF" stroke-width="1.008" stroke-miterlimit="10" cx="215.452" cy="151.776" rx="1.016" ry="1"/>
				
					<ellipse fill="#FFFFFF" stroke="#FFFFFF" stroke-width="1.008" stroke-miterlimit="10" cx="207.324" cy="157.776" rx="1.016" ry="1"/>
				
					<ellipse fill="#FFFFFF" stroke="#FFFFFF" stroke-width="1.008" stroke-miterlimit="10" cx="215.452" cy="154.776" rx="1.016" ry="1"/>
			</g>
		</g>
		<g id="HornYoEleven">
			
				<rect id="HornYoElevenRect" x="173.926" y="169.276" fill="none" stroke="#000000" stroke-miterlimit="10" width="86" height="25"/>
			<g>
				<rect x="219.926" y="176.276" fill="#FF0000" stroke="#000000" stroke-miterlimit="10" width="13" height="11"/>
				
					<ellipse fill="#FFFFFF" stroke="#FFFFFF" stroke-width="1.008" stroke-miterlimit="10" cx="230.658" cy="178.776" rx="1.016" ry="1"/>
				
					<ellipse fill="#FFFFFF" stroke="#FFFFFF" stroke-width="1.008" stroke-miterlimit="10" cx="222.53" cy="184.776" rx="1.016" ry="1"/>
				
					<ellipse fill="#FFFFFF" stroke="#FFFFFF" stroke-width="1.0738" stroke-miterlimit="10" cx="230.52" cy="184.776" rx="1.153" ry="1"/>
				
					<ellipse fill="#FFFFFF" stroke="#FFFFFF" stroke-width="1.0738" stroke-miterlimit="10" cx="222.45" cy="178.776" rx="1.153" ry="1"/>
				
					<ellipse fill="#FFFFFF" stroke="#FFFFFF" stroke-width="1.008" stroke-miterlimit="10" cx="226.594" cy="181.776" rx="1.016" ry="1"/>
			</g>
			<g>
				<rect x="205.926" y="176.276" fill="#FF0000" stroke="#000000" stroke-miterlimit="10" width="13" height="11"/>
				
					<ellipse fill="#FFFFFF" stroke="#FFFFFF" stroke-width="1.008" stroke-miterlimit="10" cx="216.434" cy="184.776" rx="1.016" ry="1"/>
				
					<ellipse fill="#FFFFFF" stroke="#FFFFFF" stroke-width="1.008" stroke-miterlimit="10" cx="208.306" cy="178.776" rx="1.016" ry="1"/>
				
					<ellipse fill="#FFFFFF" stroke="#FFFFFF" stroke-width="1.008" stroke-miterlimit="10" cx="208.306" cy="181.776" rx="1.016" ry="1"/>
				
					<ellipse fill="#FFFFFF" stroke="#FFFFFF" stroke-width="1.008" stroke-miterlimit="10" cx="216.434" cy="178.776" rx="1.016" ry="1"/>
				
					<ellipse fill="#FFFFFF" stroke="#FFFFFF" stroke-width="1.008" stroke-miterlimit="10" cx="208.306" cy="184.776" rx="1.016" ry="1"/>
				
					<ellipse fill="#FFFFFF" stroke="#FFFFFF" stroke-width="1.008" stroke-miterlimit="10" cx="216.434" cy="181.776" rx="1.016" ry="1"/>
			</g>
		</g>
		<g id="HornAces">
			<rect id="HornAcesRect" x="75.926" y="144.276" fill="none" stroke="#000000" stroke-miterlimit="10" width="98" height="25"/>
			<g>
				<rect x="114.926" y="151.276" fill="#FF0000" stroke="#000000" stroke-miterlimit="10" width="13" height="11"/>
				
					<ellipse fill="#FFFFFF" stroke="#FFFFFF" stroke-width="1.0138" stroke-miterlimit="10" cx="120.476" cy="156.776" rx="1.028" ry="1"/>
			</g>
			<g>
				<rect x="128.926" y="151.276" fill="#FF0000" stroke="#000000" stroke-miterlimit="10" width="13" height="11"/>
				
					<ellipse fill="#FFFFFF" stroke="#FFFFFF" stroke-width="1.0138" stroke-miterlimit="10" cx="134.865" cy="156.776" rx="1.028" ry="1"/>
			</g>
		</g>
		<g id="HornText">
			<g id="HornBets_2_">
				<path d="M152.199,159.49c0.115,1.971,0.173,2.956,0.288,4.927c1.011-0.059,1.517-0.087,2.528-0.138
					c-0.101-1.971-0.151-2.957-0.251-4.929c0.621-0.032,0.932-0.047,1.554-0.076c0.239,5.132,0.358,7.698,0.597,12.829
					c-0.599,0.028-0.898,0.042-1.496,0.073c-0.109-2.147-0.164-3.22-0.274-5.367c-1.004,0.051-1.506,0.079-2.509,0.137
					c0.125,2.146,0.188,3.219,0.313,5.365c-0.602,0.035-0.903,0.053-1.505,0.091c-0.323-5.127-0.484-7.691-0.806-12.818
					C151.261,159.545,151.574,159.526,152.199,159.49z"/>
				<path d="M162.763,167.116c0.098,3.41-1.108,5.007-2.397,5.053c-1.407,0.051-2.567-1.689-2.699-4.698
					c-0.131-3.007,0.838-4.978,2.428-5.036C161.614,162.381,162.683,164.316,162.763,167.116z M159.231,167.33
					c0.062,1.6,0.456,2.786,1.099,2.763c0.584-0.021,0.923-1.158,0.867-2.834c-0.046-1.39-0.375-2.791-1.069-2.766
					C159.394,164.52,159.178,165.959,159.231,167.33z"/>
				<path d="M163.662,165.604c-0.035-1.372-0.079-2.267-0.12-3.066c0.53-0.014,0.796-0.242,1.326-0.254
					c0.035,0.686,0.053,1.492,0.088,1.492c0.016,0,0.024,0,0.04,0c0.222-1,0.819-1.721,1.295-1.729
					c0.142-0.003,0.213,0.107,0.325,0.143c0.019,1.09,0.028,1.69,0.046,2.78c-0.111-0.036-0.243-0.044-0.414-0.041
					c-0.563,0.01-0.933,0.605-1.014,1.501c-0.016,0.191-0.021,0.427-0.016,0.656c0.04,1.89,0.061,2.838,0.101,4.728
					c-0.599,0.013-0.898,0.022-1.497,0.037C163.759,169.352,163.727,168.104,163.662,165.604z"/>
				<path d="M167.473,165.433c-0.017-1.163-0.052-2.153-0.084-2.972c0.535-0.008,0.802,0.017,1.337,0.011
					c0.034,0.511,0.051,0.305,0.085,1.305c0.012,0,0.018,0,0.03,0c0.195-1,0.694-1.523,1.514-1.528
					c1.013-0.006,1.775,1.237,1.777,3.981c0.002,2.21,0.003,3.308,0.006,5.519c-0.599,0.001-0.899-0.002-1.498,0.001
					c-0.011-2.066-0.017-3.1-0.028-5.166c-0.007-1.201-0.232-2.021-0.786-2.017c-0.423,0.003-0.669,0.558-0.764,1.093
					c-0.038,0.171-0.056,0.458-0.053,0.724c0.022,2.15,0.033,3.224,0.055,5.374c-0.599,0.006-0.898,0.01-1.497,0.019
					C167.529,169.239,167.51,167.97,167.473,165.433z"/>
				<path d="M175.487,159.082c0.41-0.149,1.24-0.255,2.018-0.244c0.951,0.014,1.532,0.196,2.021,0.76
					c0.47,0.486,0.95,1.37,0.923,2.531c-0.026,1.144-1.024,2.202-1.024,2.72c0,0.015,0,0.023,0,0.038
					c0,0.415,1.157,1.533,1.119,3.192c-0.027,1.161-0.404,2.069-0.832,2.709c-0.5,0.733-1.353,1.134-2.673,1.116
					c-0.739-0.01-1.308-0.11-1.643-0.207C175.441,166.651,175.443,164.128,175.487,159.082z M176.966,164.015
					c0.202,0.003,0.303,0.004,0.504,0.007c0.806,0.012,1.251-0.608,1.268-1.561c0.018-0.972-0.37-1.494-1.071-1.505
					c-0.336-0.005-0.529,0.031-0.662,0.067C176.99,162.22,176.982,162.818,176.966,164.015z M176.891,169.712
					c0.148,0.04,0.327,0.043,0.584,0.046c0.684,0.01,1.298-0.474,1.323-1.827c0.024-1.296-0.577-1.822-1.338-1.833
					c-0.208-0.003-0.313-0.005-0.521-0.007C176.92,167.54,176.91,168.264,176.891,169.712z"/>
				<path d="M182.599,168.157c0.014,1.202,0.611,1.791,1.314,1.815c0.515,0.017,0.936-0.1,1.352-0.333
					c0.049,0.788,0.074,1.181,0.123,1.969c-0.507,0.362-1.114,0.531-1.764,0.509c-1.634-0.054-2.522-1.905-2.447-4.82
					c0.061-2.362,0.908-4.955,2.629-4.898c1.6,0.053,2.115,2.421,2.025,4.726c-0.02,0.496-0.066,0.932-0.094,1.14
					C184.482,168.216,183.854,168.195,182.599,168.157z M184.452,166.235c0.025-0.705-0.095-1.892-0.8-1.915
					c-0.645-0.021-0.94,1.076-1.004,1.856C183.37,166.198,183.73,166.21,184.452,166.235z"/>
				<path d="M188.771,160.137c-0.05,1.066-0.075,1.599-0.125,2.665c0.441,0.021,0.661,0.031,1.102,0.054
					c-0.043,0.853-0.064,1.279-0.107,2.131c-0.438-0.022-0.657-0.033-1.096-0.053c-0.063,1.348-0.095,2.022-0.158,3.37
					c-0.053,1.124,0.061,1.644,0.517,1.666c0.188,0.009,0.339-0.022,0.45-0.054c-0.04,0.876-0.06,1.314-0.1,2.19
					c-0.204,0.141-0.563,0.22-0.986,0.2c-0.482-0.023-0.871-0.364-1.087-0.85c-0.252-0.565-0.353-1.465-0.297-2.779
					c0.065-1.523,0.097-2.285,0.162-3.808c-0.261-0.011-0.392-0.017-0.654-0.027c0.035-0.853,0.052-1.279,0.087-2.132
					c0.263,0.011,0.395,0.016,0.658,0.027c0.034-0.807,0.052-1.211,0.086-2.018C187.841,160.484,188.151,160.368,188.771,160.137z"
					/>
				<path d="M190.269,169.677c0.26,0.338,0.814,0.749,1.259,0.774c0.455,0.026,0.661-0.266,0.689-0.742
					c0.028-0.475-0.107-0.713-0.654-1.106c-0.968-0.704-1.299-1.775-1.236-2.874c0.098-1.723,0.949-3.004,2.173-2.933
					c0.577,0.034,1.078,0.312,1.363,0.616c-0.159,0.792-0.238,1.188-0.396,1.98c-0.207-0.242-0.611-0.571-1.034-0.596
					c-0.372-0.022-0.6,0.251-0.626,0.727c-0.025,0.437,0.153,0.676,0.73,1.111c0.895,0.664,1.23,1.588,1.15,2.953
					c-0.102,1.725-0.896,2.959-2.273,2.881c-0.629-0.036-1.175-0.332-1.52-0.732C190.043,170.912,190.119,170.5,190.269,169.677z"/>
			</g>
		</g>
		<g id="HornThree">
			<rect id="HornThreeRect" x="75.926" y="169.276" fill="none" stroke="#000000" stroke-miterlimit="10" width="98" height="25"/>
			<g>
				<rect x="128.926" y="176.276" fill="#FF0000" stroke="#000000" stroke-miterlimit="10" width="13" height="11"/>
				
					<ellipse fill="#FFFFFF" stroke="#FFFFFF" stroke-width="1.0138" stroke-miterlimit="10" cx="135.75" cy="181.776" rx="1.028" ry="1"/>
			</g>
			<g>
				<rect x="114.926" y="176.276" fill="#FF0000" stroke="#000000" stroke-miterlimit="10" width="13" height="11"/>
				
					<ellipse fill="#FFFFFF" stroke="#FFFFFF" stroke-width="1.0138" stroke-miterlimit="10" cx="125.472" cy="184.776" rx="1.028" ry="1"/>
				
					<ellipse fill="#FFFFFF" stroke="#FFFFFF" stroke-width="1.0138" stroke-miterlimit="10" cx="117.25" cy="178.776" rx="1.028" ry="1"/>
			</g>
		</g>
	</g>
	<g id="Four">
		<rect id="FourRect" x="330.463" y="15.019" fill="none" stroke="#000000" stroke-miterlimit="10" width="24.929" height="40"/>
		<rect x="334.999" y="30.912" fill="none" width="18" height="11.52"/>
		<text id="FourText" transform="matrix(0.72 0 0 1 341.6009 39.4314)" font-family="'MyriadPro-Bold'" font-size="12">4</text>
	</g>
	<g id="Five_1_">
		<rect id="FiveRect" x="355.426" y="15.019" fill="none" stroke="#000000" stroke-miterlimit="10" width="25" height="40"/>
		<rect x="359" y="30.912" fill="none" width="18" height="11.52"/>
		<text id="FiveText" transform="matrix(0.72 0 0 1 365.6019 39.4314)" font-family="'MyriadPro-Bold'" font-size="12">5</text>
	</g>
	<g id="Six">
		<rect id="SixRect" x="380.426" y="15.019" fill="none" stroke="#000000" stroke-miterlimit="10" width="25" height="40"/>
		
			<rect x="384" y="30.912" transform="matrix(0.9336 -0.3584 0.3584 0.9336 12.961 143.2743)" fill="none" width="18" height="11.52"/>
		
			<text id="SixText" transform="matrix(0.6722 -0.258 0.3584 0.9336 388.612 41.3117)" font-family="'MyriadPro-Bold'" font-size="12">Six</text>
	</g>
	<g id="Eight">
		<rect id="EightRect" x="405.426" y="15.019" fill="none" stroke="#000000" stroke-miterlimit="10" width="25" height="40"/>
		<rect x="408" y="30.912" fill="none" width="18" height="11.52"/>
		<text id="EightText" transform="matrix(0.72 0 0 1 414.6019 39.4314)" font-family="'MyriadPro-Bold'" font-size="12">8</text>
	</g>
	<g id="Nine">
		<rect id="NineRect" x="430.426" y="15.019" fill="none" stroke="#000000" stroke-miterlimit="10" width="25" height="40"/>
		<rect x="434" y="30.178" transform="matrix(0.866 -0.5 0.5 0.866 41.3816 226.3149)" fill="none" width="18" height="11.52"/>
		<text id="NineText" transform="matrix(0.6235 -0.36 0.5 0.866 436.6066 42.8169)" font-family="'MyriadPro-Bold'" font-size="12">Nine</text>
	</g>
	<g id="Ten">
		<rect id="TenRect" x="455.426" y="15.019" fill="none" stroke="#000000" stroke-miterlimit="10" width="25" height="40"/>
		<rect x="458" y="30.912" fill="none" width="18" height="11.52"/>
		<text id="TenText" transform="matrix(0.72 0 0 1 462.2044 39.4314)" font-family="'MyriadPro-Bold'" font-size="12">10</text>
	</g>
</g>
<g id="SevenBet">
	<rect id="SevenBetRect" x="75.926" y="129.276" fill="none" stroke="#000000" stroke-miterlimit="10" width="184" height="15"/>
	<g id="SevenBetText">
		<g>
			<g>
				<path d="M129.208,135.831l-1.964,5.996h1.507l0.458-1.539h1.841l0.496,1.539h1.564l-1.993-5.996H129.208z M129.418,139.274
					l0.381-1.272c0.105-0.347,0.201-0.801,0.296-1.156h0.019c0.095,0.355,0.21,0.801,0.324,1.156l0.4,1.272H129.418z"/>
				<path d="M136.672,137.379c-0.772,0-1.25,0.418-1.44,0.694h-0.029l-0.067-0.596h-1.259c0.019,0.382,0.038,0.845,0.038,1.388
					v2.962h1.45v-2.509c0-0.124,0.019-0.258,0.057-0.338c0.096-0.249,0.334-0.507,0.734-0.507c0.524,0,0.734,0.382,0.734,0.942
					v2.411h1.45v-2.58C138.341,137.967,137.626,137.379,136.672,137.379z"/>
				<path d="M141.753,139.612c-0.067,0.249-0.143,0.578-0.21,0.81h-0.028c-0.058-0.231-0.153-0.552-0.229-0.81l-0.696-2.135h-1.612
					l1.707,3.976c0.057,0.107,0.067,0.179,0.067,0.223c0,0.062-0.029,0.134-0.076,0.196c-0.143,0.222-0.381,0.436-0.601,0.542
					c-0.219,0.125-0.448,0.205-0.629,0.231l0.305,1.147c0.362-0.044,0.896-0.187,1.402-0.596c0.525-0.437,0.973-1.13,1.641-2.855
					l1.087-2.864h-1.554L141.753,139.612z"/>
				<path d="M148.959,138.269c-0.83-0.293-1.192-0.462-1.192-0.845c0-0.312,0.305-0.578,0.935-0.578s1.087,0.169,1.345,0.284
					l0.324-1.094c-0.381-0.16-0.916-0.303-1.64-0.303c-1.517,0-2.432,0.783-2.432,1.806c0,0.872,0.696,1.424,1.764,1.771
					c0.772,0.258,1.078,0.472,1.078,0.845c0,0.392-0.353,0.649-1.02,0.649c-0.62,0-1.221-0.187-1.612-0.373l-0.296,1.121
					c0.362,0.187,1.087,0.364,1.822,0.364c1.764,0,2.594-0.854,2.594-1.859C150.628,139.212,150.094,138.66,148.959,138.269z"/>
				<path d="M153.649,137.379c-1.622,0-2.355,1.219-2.355,2.322c0,1.361,0.906,2.215,2.489,2.215c0.629,0,1.211-0.089,1.688-0.267
					l-0.19-0.916c-0.391,0.115-0.792,0.178-1.288,0.178c-0.677,0-1.269-0.268-1.316-0.827h3.004
					c0.019-0.099,0.048-0.303,0.048-0.534C155.728,138.474,155.156,137.379,153.649,137.379z M152.666,139.158
					c0.038-0.364,0.286-0.881,0.896-0.881c0.667,0,0.82,0.552,0.82,0.881H152.666z"/>
				<path d="M158.853,139.496c-0.105,0.374-0.181,0.703-0.257,1.059h-0.029c-0.066-0.347-0.152-0.693-0.267-1.059l-0.629-2.019
					h-1.573l1.697,4.35h1.45l1.736-4.35h-1.526L158.853,139.496z"/>
				<path d="M163.734,137.379c-1.622,0-2.355,1.219-2.355,2.322c0,1.361,0.906,2.215,2.489,2.215c0.629,0,1.211-0.089,1.688-0.267
					l-0.19-0.916c-0.391,0.115-0.792,0.178-1.288,0.178c-0.677,0-1.269-0.268-1.316-0.827h3.004
					c0.019-0.099,0.048-0.303,0.048-0.534C165.813,138.474,165.24,137.379,163.734,137.379z M162.751,139.158
					c0.038-0.364,0.286-0.881,0.896-0.881c0.667,0,0.82,0.552,0.82,0.881H162.751z"/>
				<path d="M169.434,137.379c-0.772,0-1.25,0.418-1.44,0.694h-0.029l-0.067-0.596h-1.259c0.019,0.382,0.038,0.845,0.038,1.388
					v2.962h1.45v-2.509c0-0.124,0.019-0.258,0.057-0.338c0.096-0.249,0.334-0.507,0.734-0.507c0.524,0,0.734,0.382,0.734,0.942
					v2.411h1.45v-2.58C171.103,137.967,170.388,137.379,169.434,137.379z"/>
				<polygon points="173.761,142.183 174.723,142.183 176.764,135.733 175.801,135.733 				"/>
				<path d="M182.808,138.598v-0.018c0.725-0.249,1.058-0.747,1.058-1.281c0-0.542-0.324-0.951-0.772-1.174
					c-0.467-0.258-1.011-0.338-1.897-0.338c-0.725,0-1.498,0.053-1.879,0.124v5.89c0.324,0.044,0.858,0.089,1.574,0.089
					c1.278,0,2.06-0.196,2.527-0.543c0.4-0.303,0.667-0.729,0.667-1.272C184.086,139.301,183.542,138.785,182.808,138.598z
					 M180.758,136.81c0.124-0.018,0.305-0.035,0.62-0.035c0.658,0,1.03,0.24,1.03,0.693c0,0.445-0.41,0.738-1.173,0.738h-0.477
					V136.81z M181.321,140.884c-0.248,0-0.42,0-0.563-0.018v-1.69h0.496c0.725,0,1.307,0.24,1.307,0.846
					C182.56,140.653,181.978,140.884,181.321,140.884z"/>
				<path d="M185.752,135.582c-0.467,0-0.772,0.294-0.763,0.686c-0.009,0.373,0.296,0.676,0.753,0.676
					c0.477,0,0.782-0.303,0.782-0.676C186.515,135.876,186.219,135.582,185.752,135.582z"/>
				<rect x="185.027" y="137.478" width="1.45" height="4.35"/>
				<path d="M190.786,137.993h-0.019c-0.239-0.356-0.639-0.614-1.278-0.614c-1.144,0-2.117,0.89-2.117,2.286
					c0,1.255,0.82,2.127,1.974,2.127c0.534,0,0.982-0.205,1.259-0.569h0.019v0.284c0,0.801-0.525,1.147-1.211,1.147
					c-0.543,0-1.059-0.169-1.354-0.329l-0.286,1.023c0.419,0.222,1.068,0.338,1.678,0.338c0.687,0,1.383-0.125,1.898-0.534
					c0.524-0.436,0.706-1.12,0.706-1.957v-2.429c0-0.649,0.019-1.014,0.038-1.289h-1.259L190.786,137.993z M190.605,139.888
					c0,0.116-0.01,0.258-0.048,0.356c-0.095,0.319-0.391,0.551-0.763,0.551c-0.61,0-0.954-0.507-0.954-1.156
					c0-0.792,0.429-1.236,0.954-1.236c0.401,0,0.677,0.24,0.782,0.596c0.019,0.071,0.029,0.16,0.029,0.249V139.888z"/>
				<path d="M198.659,139.016v-0.026c0.553-0.187,1.135-0.712,1.135-1.477c0-0.552-0.21-0.97-0.591-1.254
					c-0.458-0.339-1.125-0.472-2.079-0.472c-0.772,0-1.469,0.053-1.936,0.124v5.916h1.44v-2.357h0.439
					c0.591,0.009,0.868,0.214,1.04,0.961c0.19,0.738,0.343,1.228,0.448,1.396h1.487c-0.124-0.231-0.324-1.014-0.524-1.69
					C199.356,139.585,199.108,139.186,198.659,139.016z M197.2,138.491h-0.572v-1.654c0.105-0.019,0.305-0.045,0.658-0.045
					c0.667,0.009,1.068,0.285,1.068,0.836C198.354,138.153,197.926,138.491,197.2,138.491z"/>
				<path d="M202.882,137.379c-1.622,0-2.355,1.219-2.355,2.322c0,1.361,0.906,2.215,2.489,2.215c0.629,0,1.211-0.089,1.688-0.267
					l-0.19-0.916c-0.391,0.115-0.792,0.178-1.288,0.178c-0.677,0-1.269-0.268-1.316-0.827h3.004
					c0.019-0.099,0.048-0.303,0.048-0.534C204.961,138.474,204.388,137.379,202.882,137.379z M201.899,139.158
					c0.038-0.364,0.286-0.881,0.896-0.881c0.667,0,0.82,0.552,0.82,0.881H201.899z"/>
				<path d="M210.346,140.528v-5.018h-1.45v2.357h-0.019c-0.209-0.302-0.658-0.489-1.23-0.489c-1.116,0-2.098,0.846-2.088,2.313
					c0,1.352,0.887,2.232,1.993,2.232c0.601,0,1.163-0.249,1.459-0.738h0.019l0.067,0.641h1.287
					C210.365,141.533,210.346,141.018,210.346,140.528z M208.897,139.888c0,0.116-0.009,0.214-0.038,0.312
					c-0.085,0.383-0.419,0.649-0.839,0.649c-0.601,0-0.992-0.463-0.992-1.201c0-0.685,0.343-1.236,1.001-1.236
					c0.448,0,0.763,0.303,0.849,0.667c0.01,0.071,0.019,0.169,0.019,0.24V139.888z"/>
			</g>
		</g>
	</g>
</g>
<g id="DisplayDice">
	<g id="RollRect">
		<rect x="0.5" y="12.498" opacity="0.5" fill="#808080" width="64" height="39"/>
		<rect x="0.5" y="12.498" fill="none" stroke="#000000" stroke-miterlimit="10" width="64" height="39"/>
	</g>
	<g id="FrstDieOne" opacity="0">
		<rect x="1.926" y="19.276" fill="#FF0000" stroke="#000000" stroke-miterlimit="10" width="25" height="20"/>
		
			<ellipse fill="#FFFFFF" stroke="#FFFFFF" stroke-width="1.8699" stroke-miterlimit="10" cx="14.574" cy="28.72" rx="1.923" ry="1.818"/>
	</g>
	<g id="FrstDieTwo" opacity="0">
		<rect x="1.926" y="19.276" fill="#FF0000" stroke="#000000" stroke-miterlimit="10" width="25" height="20"/>
		
			<ellipse fill="#FFFFFF" stroke="#FFFFFF" stroke-width="1.6499" stroke-miterlimit="10" cx="20.019" cy="34.913" rx="1.556" ry="1.75"/>
		
			<ellipse fill="#FFFFFF" stroke="#FFFFFF" stroke-width="1.6499" stroke-miterlimit="10" cx="9.13" cy="24.413" rx="1.556" ry="1.75"/>
	</g>
	<g id="SndDieFour" opacity="0">
		<rect x="36.926" y="19.276" fill="#FF0000" stroke="#000000" stroke-miterlimit="10" width="25" height="20"/>
		
			<ellipse fill="#FFFFFF" stroke="#FFFFFF" stroke-width="1.804" stroke-miterlimit="10" cx="56.925" cy="24.265" rx="1.79" ry="1.818"/>
		
			<ellipse fill="#FFFFFF" stroke="#FFFFFF" stroke-width="1.804" stroke-miterlimit="10" cx="42.606" cy="35.174" rx="1.79" ry="1.818"/>
		
			<ellipse fill="#FFFFFF" stroke="#FFFFFF" stroke-width="1.9218" stroke-miterlimit="10" cx="56.684" cy="35.174" rx="2.031" ry="1.818"/>
		
			<ellipse fill="#FFFFFF" stroke="#FFFFFF" stroke-width="1.9218" stroke-miterlimit="10" cx="42.465" cy="24.265" rx="2.031" ry="1.818"/>
	</g>
	<g id="SndDieFive" opacity="0">
		<rect x="36.926" y="19.276" fill="#FF0000" stroke="#000000" stroke-miterlimit="10" width="25" height="20"/>
		
			<ellipse fill="#FFFFFF" stroke="#FFFFFF" stroke-width="1.6031" stroke-miterlimit="10" cx="55.68" cy="24.413" rx="1.469" ry="1.75"/>
		
			<ellipse fill="#FFFFFF" stroke="#FFFFFF" stroke-width="1.6031" stroke-miterlimit="10" cx="43.931" cy="34.913" rx="1.469" ry="1.75"/>
		
			<ellipse fill="#FFFFFF" stroke="#FFFFFF" stroke-width="1.7078" stroke-miterlimit="10" cx="55.482" cy="34.913" rx="1.667" ry="1.75"/>
		
			<ellipse fill="#FFFFFF" stroke="#FFFFFF" stroke-width="1.7078" stroke-miterlimit="10" cx="43.816" cy="24.413" rx="1.667" ry="1.75"/>
		
			<ellipse fill="#FFFFFF" stroke="#FFFFFF" stroke-width="1.6031" stroke-miterlimit="10" cx="49.806" cy="29.663" rx="1.469" ry="1.75"/>
	</g>
	<g id="SndDieSix" opacity="0">
		<rect x="36.926" y="19.276" fill="#FF0000" stroke="#000000" stroke-miterlimit="10" width="25" height="20"/>
		
			<ellipse fill="#FFFFFF" stroke="#FFFFFF" stroke-width="1.7854" stroke-miterlimit="10" cx="56.374" cy="35.288" rx="1.7" ry="1.875"/>
		
			<ellipse fill="#FFFFFF" stroke="#FFFFFF" stroke-width="1.7854" stroke-miterlimit="10" cx="42.774" cy="24.038" rx="1.7" ry="1.875"/>
		
			<ellipse fill="#FFFFFF" stroke="#FFFFFF" stroke-width="1.7854" stroke-miterlimit="10" cx="42.774" cy="29.663" rx="1.7" ry="1.875"/>
		
			<ellipse fill="#FFFFFF" stroke="#FFFFFF" stroke-width="1.7854" stroke-miterlimit="10" cx="56.374" cy="24.038" rx="1.7" ry="1.875"/>
		
			<ellipse fill="#FFFFFF" stroke="#FFFFFF" stroke-width="1.7854" stroke-miterlimit="10" cx="42.774" cy="35.288" rx="1.7" ry="1.875"/>
		
			<ellipse fill="#FFFFFF" stroke="#FFFFFF" stroke-width="1.7854" stroke-miterlimit="10" cx="56.374" cy="29.663" rx="1.7" ry="1.875"/>
	</g>
	<g id="SndDieOne" opacity="0">
		<rect x="36.926" y="19.276" fill="#FF0000" stroke="#000000" stroke-miterlimit="10" width="25" height="20"/>
		
			<ellipse fill="#FFFFFF" stroke="#FFFFFF" stroke-width="1.8699" stroke-miterlimit="10" cx="49.574" cy="28.72" rx="1.923" ry="1.818"/>
	</g>
	<g id="SndDieTwo" opacity="0">
		<rect x="36.926" y="19.276" fill="#FF0000" stroke="#000000" stroke-miterlimit="10" width="25" height="20"/>
		
			<ellipse fill="#FFFFFF" stroke="#FFFFFF" stroke-width="1.6499" stroke-miterlimit="10" cx="55.334" cy="35.135" rx="1.556" ry="1.75"/>
		
			<ellipse fill="#FFFFFF" stroke="#FFFFFF" stroke-width="1.6499" stroke-miterlimit="10" cx="44.445" cy="24.635" rx="1.556" ry="1.75"/>
	</g>
	<g id="FrstDieThree" opacity="0">
		<rect x="1.926" y="19.276" fill="#FF0000" stroke="#000000" stroke-miterlimit="10" width="25" height="20"/>
		
			<ellipse fill="#FFFFFF" stroke="#FFFFFF" stroke-width="1.8522" stroke-miterlimit="10" cx="21.163" cy="34.538" rx="2.111" ry="1.625"/>
		
			<ellipse fill="#FFFFFF" stroke="#FFFFFF" stroke-width="1.7613" stroke-miterlimit="10" cx="13.819" cy="29.663" rx="1.909" ry="1.625"/>
		
			<ellipse fill="#FFFFFF" stroke="#FFFFFF" stroke-width="1.8522" stroke-miterlimit="10" cx="6.385" cy="24.788" rx="2.111" ry="1.625"/>
	</g>
	<g id="FrstDieFour" opacity="0">
		<rect x="1.926" y="19.276" fill="#FF0000" stroke="#000000" stroke-miterlimit="10" width="25" height="20"/>
		
			<ellipse fill="#FFFFFF" stroke="#FFFFFF" stroke-width="1.804" stroke-miterlimit="10" cx="22.206" cy="24.265" rx="1.79" ry="1.818"/>
		
			<ellipse fill="#FFFFFF" stroke="#FFFFFF" stroke-width="1.804" stroke-miterlimit="10" cx="7.887" cy="35.174" rx="1.79" ry="1.818"/>
		
			<ellipse fill="#FFFFFF" stroke="#FFFFFF" stroke-width="1.9218" stroke-miterlimit="10" cx="21.964" cy="35.174" rx="2.031" ry="1.818"/>
		
			<ellipse fill="#FFFFFF" stroke="#FFFFFF" stroke-width="1.9218" stroke-miterlimit="10" cx="7.745" cy="24.265" rx="2.031" ry="1.818"/>
	</g>
	<g id="SndDieThree" opacity="0">
		<rect x="36.926" y="19.276" fill="#FF0000" stroke="#000000" stroke-miterlimit="10" width="25" height="20"/>
		
			<ellipse fill="#FFFFFF" stroke="#FFFFFF" stroke-width="1.8522" stroke-miterlimit="10" cx="56.236" cy="34.76" rx="2.111" ry="1.625"/>
		
			<ellipse fill="#FFFFFF" stroke="#FFFFFF" stroke-width="1.7613" stroke-miterlimit="10" cx="48.892" cy="29.885" rx="1.909" ry="1.625"/>
		
			<ellipse fill="#FFFFFF" stroke="#FFFFFF" stroke-width="1.8522" stroke-miterlimit="10" cx="41.458" cy="25.01" rx="2.111" ry="1.625"/>
	</g>
	<g id="FrstDieFive" opacity="0">
		<rect x="1.926" y="19.276" fill="#FF0000" stroke="#000000" stroke-miterlimit="10" width="25" height="20"/>
		
			<ellipse fill="#FFFFFF" stroke="#FFFFFF" stroke-width="1.6031" stroke-miterlimit="10" cx="20.606" cy="24.413" rx="1.469" ry="1.75"/>
		
			<ellipse fill="#FFFFFF" stroke="#FFFFFF" stroke-width="1.6031" stroke-miterlimit="10" cx="8.857" cy="34.913" rx="1.469" ry="1.75"/>
		
			<ellipse fill="#FFFFFF" stroke="#FFFFFF" stroke-width="1.7078" stroke-miterlimit="10" cx="20.408" cy="34.913" rx="1.667" ry="1.75"/>
		
			<ellipse fill="#FFFFFF" stroke="#FFFFFF" stroke-width="1.7078" stroke-miterlimit="10" cx="8.741" cy="24.413" rx="1.667" ry="1.75"/>
		
			<ellipse fill="#FFFFFF" stroke="#FFFFFF" stroke-width="1.6031" stroke-miterlimit="10" cx="14.731" cy="29.663" rx="1.469" ry="1.75"/>
	</g>
	<g id="FrstDieSix" opacity="0">
		<rect x="1.926" y="19.276" fill="#FF0000" stroke="#000000" stroke-miterlimit="10" width="25" height="20"/>
		
			<ellipse fill="#FFFFFF" stroke="#FFFFFF" stroke-width="1.7854" stroke-miterlimit="10" cx="21.374" cy="35.288" rx="1.7" ry="1.875"/>
		
			<ellipse fill="#FFFFFF" stroke="#FFFFFF" stroke-width="1.7854" stroke-miterlimit="10" cx="7.774" cy="24.038" rx="1.7" ry="1.875"/>
		
			<ellipse fill="#FFFFFF" stroke="#FFFFFF" stroke-width="1.7854" stroke-miterlimit="10" cx="7.774" cy="29.663" rx="1.7" ry="1.875"/>
		
			<ellipse fill="#FFFFFF" stroke="#FFFFFF" stroke-width="1.7854" stroke-miterlimit="10" cx="21.374" cy="24.038" rx="1.7" ry="1.875"/>
		
			<ellipse fill="#FFFFFF" stroke="#FFFFFF" stroke-width="1.7854" stroke-miterlimit="10" cx="7.774" cy="35.288" rx="1.7" ry="1.875"/>
		
			<ellipse fill="#FFFFFF" stroke="#FFFFFF" stroke-width="1.7854" stroke-miterlimit="10" cx="21.374" cy="29.663" rx="1.7" ry="1.875"/>
	</g>
</g>
<g id="BigSix">
	<polygon id="BigSixRect" fill="none" stroke="#000000" stroke-miterlimit="10" points="532.5,180.311 497.5,180.311 497.5,164.032 
		504.5,156.032 	"/>
	<rect x="499.426" y="166.032" fill="none" width="16" height="12"/>
	
		<text transform="matrix(0.9428 -0.9428 0.7071 0.7071 507.1101 176.0269)" font-family="'MyriadPro-Regular'" font-size="12" letter-spacing="4.5">6</text>
</g>
<g id="BigEight">
	<polygon id="BigEightRect" fill="none" stroke="#000000" stroke-miterlimit="10" points="532.5,179.74 504.5,155.74 513.5,145.74 
		534.5,145.74 534.5,169.019 534.5,178.019 	"/>
	<rect x="514.5" y="151.74" fill="none" width="16" height="12"/>
	
		<text transform="matrix(0.9428 -0.9428 0.7071 0.7071 522.1842 161.7349)" font-family="'MyriadPro-Regular'" font-size="12" letter-spacing="4.5">8</text>
</g>
<g id="PlaceRects">
	<rect id="PlaceFour" x="330.5" y="42.95" fill="none" stroke="#000000" stroke-miterlimit="10" width="25" height="5"/>
	<rect id="PlaceFive" x="355.5" y="42.95" fill="none" stroke="#000000" stroke-miterlimit="10" width="25" height="5"/>
	<rect id="PlaceSix" x="380.5" y="42.95" fill="none" stroke="#000000" stroke-miterlimit="10" width="25" height="5"/>
	<rect id="PlaceEight" x="405.5" y="42.95" fill="none" stroke="#000000" stroke-miterlimit="10" width="25" height="5"/>
	<rect id="PlaceNine" x="430.5" y="42.95" fill="none" stroke="#000000" stroke-miterlimit="10" width="25" height="5"/>
	<rect id="PlaceTen" x="455.5" y="42.95" fill="none" stroke="#000000" stroke-miterlimit="10" width="25" height="5"/>
</g>
<g id="BuyRects">
	<rect id="BuyFour" x="330.5" y="48.172" fill="none" width="25" height="5"/>
	<rect id="BuyFive" x="355.5" y="48.172" fill="none" width="25" height="5"/>
	<rect id="BuySix" x="380.5" y="48.172" fill="none" width="25" height="5"/>
	<rect id="BuyEight" x="405.5" y="48.172" fill="none" width="25" height="5"/>
	<rect id="BuyNine" x="430.5" y="48.172" fill="none" width="25" height="5"/>
	<rect id="BuyTen" x="455.5" y="48.172" fill="none" width="25" height="5"/>
</g>
<g id="ComeRects">
	<rect id="ComeFour" x="330.5" y="38.172" fill="none" width="25" height="5"/>
	<rect id="ComeFive" x="355.5" y="38.172" fill="none" width="25" height="5"/>
	<rect id="ComeSix" x="380.5" y="38.172" fill="none" width="25" height="5"/>
	<rect id="ComeEight" x="405.5" y="38.172" fill="none" width="25" height="5"/>
	<rect id="ComeNine" x="430.5" y="38.172" fill="none" width="25" height="5"/>
	<rect id="ComeTen" x="455.5" y="38.172" fill="none" width="25" height="5"/>
</g>
<g id="DontComeRects">
	<rect id="DontComeFour" x="330.5" y="28.172" fill="none" width="25" height="5"/>
	<rect id="DontComeFive" x="355.5" y="28.172" fill="none" width="25" height="5"/>
	<rect id="DontComeSix" x="380.5" y="28.172" fill="none" width="25" height="5"/>
	<rect id="DontComeEight" x="405.5" y="28.172" fill="none" width="25" height="5"/>
	<rect id="DontComeNine" x="430.5" y="28.172" fill="none" width="25" height="5"/>
	<rect id="DontComeTen" x="455.5" y="28.172" fill="none" width="25" height="5"/>
</g>
<g id="DontPlaceRects">
	<rect x="330.5" y="23.172" fill="none" stroke="#000000" stroke-miterlimit="10" width="25" height="5"/>
	<rect x="355.5" y="23.172" fill="none" stroke="#000000" stroke-miterlimit="10" width="25" height="5"/>
	<rect x="380.5" y="23.172" fill="none" stroke="#000000" stroke-miterlimit="10" width="25" height="5"/>
	<rect x="405.5" y="23.172" fill="none" stroke="#000000" stroke-miterlimit="10" width="25" height="5"/>
	<rect x="430.5" y="23.172" fill="none" stroke="#000000" stroke-miterlimit="10" width="25" height="5"/>
	<rect x="455.5" y="23.172" fill="none" stroke="#000000" stroke-miterlimit="10" width="25" height="5"/>
</g>
<g id="Dont_x27_BuyRects">
	<rect id="DontBuyFour" x="330.426" y="14.672" fill="none" width="25" height="8"/>
	<rect id="DontBuyFive" x="355.426" y="14.672" fill="none" width="25" height="8"/>
	<rect id="DontBuySix" x="380.426" y="14.672" fill="none" width="25" height="8"/>
	<rect id="DontBuyEight" x="405.426" y="14.672" fill="none" width="25" height="8"/>
	<rect id="DontBuyNine_4_" x="430.426" y="14.672" fill="none" width="25" height="8"/>
	<rect id="DontBuyTen" x="455.426" y="14.672" fill="none" width="25" height="8"/>
</g>
<g id="ExtraText">
	<rect x="77.926" y="1.778" fill="none" width="184" height="13.44"/>
	<text id="HopText" transform="matrix(1 0 0 1 141.9333 11.718)" font-family="'MyriadPro-Bold'" font-size="14">Hop Bets</text>
	<rect x="78.936" y="71.498" fill="none" width="181" height="12"/>
	<text id="HardText" transform="matrix(1.2781 0 0 1 116.9372 80.3725)" font-family="'MyriadPro-Bold'" font-size="12.5001">Hardways Bets</text>
	<g id="HopHardText">
		<rect id="HopHardBorder" x="74.5" y="40.539" fill="none" width="189" height="28"/>
		<rect x="150" y="40.539" fill="none" width="38" height="28"/>
		<text id="HopHard" transform="matrix(1 0 0 0.95 161.5437 52.2197)"><tspan x="0" y="0" font-family="'MyriadPro-Bold'" font-size="8">Hop  </tspan><tspan x="-10.292" y="9.474" font-family="'MyriadPro-Bold'" font-size="8">Hardways</tspan></text>
	</g>
	<rect x="0" y="0.507" fill="none" width="64" height="12"/>
	<text id="RollResultText" transform="matrix(1 0 0 1 9.3528 10.0989)" font-family="'MyriadPro-Bold'" font-size="9.6331">Roll Result</text>
</g>
</svg>
