<?xml version="1.0" encoding="utf-8"?>
<!-- Generator: Adobe Illustrator 18.1.1, SVG Export Plug-In . SVG Version: 6.00 Build 0)  -->
<svg version="1.1" id="Layer_1" xmlns="http://www.w3.org/2000/svg" xmlns:xlink="http://www.w3.org/1999/xlink" x="0px" y="0px"
	 viewBox="0 0 51 54" enable-background="new 0 0 51 54" xml:space="preserve">
<polyline points="0,17.6 29.4,1.5 51,13.1 51,36.4 21.8,52.5 0,40.9 0,17.6 "/>
<g id="Logo">
	<g id="VerLogo">
		<linearGradient id="SVGID_1_" gradientUnits="userSpaceOnUse" x1="7.889" y1="30.5946" x2="29.4445" y2="30.5946">
			<stop  offset="0" style="stop-color:#FFFFFF;stop-opacity:0.2"/>
			<stop  offset="0.5984" style="stop-color:#C65858;stop-opacity:0.7"/>
		</linearGradient>
		<polygon fill="url(#SVGID_1_)" points="29.4,48.1 7.9,36.4 7.9,13.1 29.4,24.8 		"/>
		<linearGradient id="SVGID_2_" gradientUnits="userSpaceOnUse" x1="7.889" y1="13.1379" x2="50.9999" y2="13.1379">
			<stop  offset="0" style="stop-color:#FFFFFF;stop-opacity:0.2"/>
			<stop  offset="0.5984" style="stop-color:#C65858;stop-opacity:0.7"/>
		</linearGradient>
		<polygon fill="url(#SVGID_2_)" points="29.4,24.8 7.9,13.1 29.4,1.5 51,13.1 		"/>
		<linearGradient id="SVGID_3_" gradientUnits="userSpaceOnUse" x1="29.4445" y1="30.5946" x2="51" y2="30.5946">
			<stop  offset="0" style="stop-color:#FFFFFF;stop-opacity:0.2"/>
			<stop  offset="0.5984" style="stop-color:#C65858;stop-opacity:0.7"/>
		</linearGradient>
		<polygon fill="url(#SVGID_3_)" points="51,36.4 29.4,48.1 29.4,24.8 51,13.1 		"/>
		<path fill="#FFFFFF" d="M13.9,24.3c0,0.3-0.2,0.4-0.4,0.2c-0.2-0.1-0.4-0.4-0.4-0.7s0.2-0.4,0.4-0.2C13.7,23.7,13.9,24,13.9,24.3z
			"/>
		<path fill="#FFFFFF" d="M23.8,36.4c0,0.3-0.2,0.4-0.4,0.2c-0.2-0.1-0.4-0.4-0.4-0.7s0.2-0.4,0.4-0.2
			C23.6,35.8,23.8,36.1,23.8,36.4z"/>
		<path fill="#FFFFFF" d="M29.8,14c-0.2,0.1-0.6,0.1-0.9,0c-0.2-0.1-0.2-0.3,0-0.5c0.2-0.1,0.6-0.1,0.9,0C30,13.7,30,13.9,29.8,14z"
			/>
		<path fill="#FFFFFF" d="M46.7,30.3c0,0.3-0.2,0.6-0.4,0.7c-0.2,0.1-0.4,0-0.4-0.2s0.2-0.6,0.4-0.7C46.5,30,46.7,30.1,46.7,30.3z"
			/>
		<path fill="#FFFFFF" d="M34.7,35.9c0,0.3-0.2,0.6-0.4,0.7c-0.2,0.1-0.4,0-0.4-0.2c0-0.3,0.2-0.6,0.4-0.7
			C34.5,35.6,34.7,35.7,34.7,35.9z"/>
		<path fill="#FFFFFF" d="M39.8,24.7c0,0.3-0.2,0.6-0.4,0.7c-0.2,0.1-0.4,0-0.4-0.2s0.2-0.6,0.4-0.7C39.6,24.4,39.8,24.5,39.8,24.7z
			"/>
		<text transform="matrix(1.1166 -0.7093 -0.2838 0.9589 27.7492 22.8763)" font-family="'TrajanPro-Regular'" font-size="5.3653">ver</text>
		<text transform="matrix(1.1166 -0.7093 -0.2838 0.9589 21.1445 15.9853)" font-family="'TrajanPro-Regular'" font-size="5.3653">ver</text>
	</g>
	<g id="CleLogo">
		<linearGradient id="SVGID_4_" gradientUnits="userSpaceOnUse" x1="1.329336e-07" y1="17.5865" x2="43.1109" y2="17.5865">
			<stop  offset="0" style="stop-color:#FFFFFF;stop-opacity:0.2"/>
			<stop  offset="0.5984" style="stop-color:#C65858;stop-opacity:0.7"/>
		</linearGradient>
		<polygon fill="url(#SVGID_4_)" points="21.6,29.2 0,17.6 21.6,5.9 43.1,17.6 		"/>
		<linearGradient id="SVGID_5_" gradientUnits="userSpaceOnUse" x1="0" y1="35.0432" x2="21.5555" y2="35.0432">
			<stop  offset="0" style="stop-color:#FFFFFF;stop-opacity:0.2"/>
			<stop  offset="0.5984" style="stop-color:#C65858;stop-opacity:0.7"/>
		</linearGradient>
		<polygon fill="url(#SVGID_5_)" points="21.6,52.5 0,40.9 0,17.6 21.6,29.2 		"/>
		<linearGradient id="SVGID_6_" gradientUnits="userSpaceOnUse" x1="21.5555" y1="35.0432" x2="43.111" y2="35.0432">
			<stop  offset="0" style="stop-color:#FFFFFF;stop-opacity:0.2"/>
			<stop  offset="0.5984" style="stop-color:#C65858;stop-opacity:0.7"/>
		</linearGradient>
		<polygon fill="url(#SVGID_6_)" points="43.1,40.9 21.6,52.5 21.6,29.2 43.1,17.6 		"/>
		<path fill="#FFFFFF" d="M6,28.7C6,29,5.8,29.1,5.5,29c-0.2-0.1-0.4-0.4-0.4-0.7s0.2-0.4,0.4-0.2C5.8,28.2,6,28.5,6,28.7z"/>
		<path fill="#FFFFFF" d="M15.9,40.8c0,0.3-0.2,0.4-0.4,0.2c-0.2-0.1-0.4-0.4-0.4-0.7s0.2-0.4,0.4-0.2
			C15.7,40.3,15.9,40.6,15.9,40.8z"/>
		<path fill="#FFFFFF" d="M21.9,18.5c-0.2,0.1-0.6,0.1-0.9,0c-0.2-0.1-0.2-0.3,0-0.5s0.6-0.1,0.9,0C22.1,18.2,22.1,18.4,21.9,18.5z"
			/>
		<path fill="#FFFFFF" d="M38.8,34.8c0,0.3-0.2,0.6-0.4,0.7s-0.4,0-0.4-0.2s0.2-0.6,0.4-0.7S38.8,34.5,38.8,34.8z"/>
		<path fill="#FFFFFF" d="M31.9,29.2c0,0.3-0.2,0.6-0.4,0.7c-0.2,0.1-0.4,0-0.4-0.2s0.2-0.6,0.4-0.7C31.7,28.8,31.9,28.9,31.9,29.2z
			"/>
		<text transform="matrix(1.0772 -0.7643 -0.2301 0.9732 18.1208 27.7799)" font-family="'TrajanPro-Regular'" font-size="5.356">Cle</text>
		<text transform="matrix(1.0772 -0.7643 -0.2301 0.9732 11.2864 21.5118)" font-family="'TrajanPro-Regular'" font-size="5.356">Cle</text>
	</g>
</g>
</svg>
